<svg width="94" height="62" viewBox="0 0 94 62" fill="none" xmlns="http://www.w3.org/2000/svg">
<path opacity="0.2" d="M28.1399 22.5903C27.5442 22.5784 26.9584 22.7441 26.4572 23.0665C25.956 23.3888 25.5622 23.853 25.3259 24.4001C25.0896 24.9471 25.0216 25.5521 25.1305 26.1379C25.2394 26.7238 25.5202 27.2639 25.9373 27.6895C26.3544 28.1151 26.8888 28.4068 27.4723 28.5275C28.0558 28.6482 28.662 28.5924 29.2137 28.3672C29.7654 28.142 30.2375 27.7576 30.5699 27.2631C30.9022 26.7685 31.0798 26.1862 31.0799 25.5903C31.0866 25.1995 31.0155 24.8114 30.8708 24.4483C30.7262 24.0853 30.5108 23.7546 30.2373 23.4755C29.9638 23.1964 29.6375 22.9744 29.2774 22.8224C28.9174 22.6705 28.5307 22.5916 28.1399 22.5903ZM28.1399 44.2103C27.5442 44.1984 26.9584 44.3641 26.4572 44.6865C25.956 45.0088 25.5622 45.473 25.3259 46.0201C25.0896 46.5671 25.0216 47.1721 25.1305 47.7579C25.2394 48.3438 25.5202 48.8839 25.9373 49.3095C26.3544 49.7351 26.8888 50.0268 27.4723 50.1475C28.0558 50.2682 28.662 50.2124 29.2137 49.9872C29.7654 49.762 30.2375 49.3776 30.5699 48.8831C30.9022 48.3885 31.0798 47.8062 31.0799 47.2103C31.0866 46.8195 31.0155 46.4314 30.8708 46.0683C30.7262 45.7053 30.5108 45.3746 30.2373 45.0955C29.9638 44.8164 29.6375 44.5944 29.2774 44.4424C28.9174 44.2905 28.5307 44.2116 28.1399 44.2103ZM28.1399 33.4003C27.5442 33.3884 26.9584 33.5541 26.4572 33.8765C25.956 34.1988 25.5622 34.663 25.3259 35.2101C25.0896 35.7571 25.0216 36.3621 25.1305 36.9479C25.2394 37.5338 25.5202 38.0739 25.9373 38.4995C26.3544 38.9251 26.8888 39.2168 27.4723 39.3375C28.0558 39.4582 28.662 39.4024 29.2137 39.1772C29.7654 38.952 30.2375 38.5676 30.5699 38.0731C30.9022 37.5785 31.0798 36.9962 31.0799 36.4003C31.0866 36.0096 31.0155 35.6214 30.8708 35.2583C30.7262 34.8953 30.5108 34.5646 30.2373 34.2855C29.9638 34.0064 29.6375 33.7844 29.2774 33.6324C28.9174 33.4805 28.5307 33.4016 28.1399 33.4003ZM40.5899 11.7803C39.9942 11.7684 39.4084 11.9341 38.9072 12.2565C38.406 12.5788 38.0122 13.043 37.7759 13.5901C37.5396 14.1371 37.4715 14.7421 37.5804 15.3279C37.6893 15.9138 37.9702 16.4539 38.3873 16.8795C38.8044 17.3051 39.3387 17.5968 39.9222 17.7175C40.5057 17.8382 41.112 17.7824 41.6637 17.5572C42.2154 17.332 42.6875 16.9476 43.0199 16.4531C43.3523 15.9585 43.5298 15.3762 43.5299 14.7803C43.5301 13.9949 43.2223 13.2408 42.6726 12.6799C42.1229 12.119 41.3752 11.796 40.5899 11.7803ZM15.6999 1.0003C15.1042 0.988381 14.5184 1.15415 14.0172 1.47646C13.516 1.79878 13.1222 2.26305 12.8859 2.81007C12.6496 3.35709 12.5816 3.96208 12.6905 4.54792C12.7994 5.13376 13.0802 5.6739 13.4973 6.09948C13.9144 6.52506 14.4487 6.81681 15.0323 6.93751C15.6158 7.05821 16.222 7.00241 16.7737 6.77722C17.3254 6.55202 17.7975 6.16764 18.1299 5.67307C18.4622 5.17851 18.6398 4.59617 18.6399 4.0003C18.6401 3.21494 18.3323 2.46083 17.7826 1.89991C17.2329 1.339 16.4851 1.01601 15.6999 1.0003ZM40.5899 33.4003C39.9942 33.3884 39.4084 33.5541 38.9072 33.8765C38.406 34.1988 38.0122 34.663 37.7759 35.2101C37.5396 35.7571 37.4715 36.3621 37.5804 36.9479C37.6893 37.5338 37.9702 38.0739 38.3873 38.4995C38.8044 38.9251 39.3387 39.2168 39.9222 39.3375C40.5057 39.4582 41.112 39.4024 41.6637 39.1772C42.2154 38.952 42.6875 38.5676 43.0199 38.0731C43.3523 37.5785 43.5298 36.9962 43.5299 36.4003C43.5301 35.6149 43.2223 34.8608 42.6726 34.2999C42.1229 33.739 41.3752 33.416 40.5899 33.4003ZM15.6999 11.7803C15.1042 11.7684 14.5184 11.9341 14.0172 12.2565C13.516 12.5788 13.1222 13.043 12.8859 13.5901C12.6496 14.1371 12.5816 14.7421 12.6905 15.3279C12.7994 15.9138 13.0802 16.4539 13.4973 16.8795C13.9144 17.3051 14.4487 17.5968 15.0323 17.7175C15.6158 17.8382 16.222 17.7824 16.7737 17.5572C17.3254 17.332 17.7975 16.9476 18.1299 16.4531C18.4622 15.9585 18.6398 15.3762 18.6399 14.7803C18.6401 13.9949 18.3323 13.2408 17.7826 12.6799C17.2329 12.119 16.4851 11.796 15.6999 11.7803ZM40.5899 44.2103C39.9942 44.1984 39.4084 44.3641 38.9072 44.6865C38.406 45.0088 38.0122 45.473 37.7759 46.0201C37.5396 46.5671 37.4715 47.1721 37.5804 47.7579C37.6893 48.3438 37.9702 48.8839 38.3873 49.3095C38.8044 49.7351 39.3387 50.0268 39.9222 50.1475C40.5057 50.2682 41.112 50.2124 41.6637 49.9872C42.2154 49.762 42.6875 49.3776 43.0199 48.8831C43.3523 48.3885 43.5298 47.8062 43.5299 47.2103C43.5301 46.4249 43.2223 45.6708 42.6726 45.1099C42.1229 44.549 41.3752 44.226 40.5899 44.2103ZM40.5899 22.5903C39.9942 22.5784 39.4084 22.7441 38.9072 23.0665C38.406 23.3888 38.0122 23.853 37.7759 24.4001C37.5396 24.9471 37.4715 25.5521 37.5804 26.1379C37.6893 26.7238 37.9702 27.2639 38.3873 27.6895C38.8044 28.1151 39.3387 28.4068 39.9222 28.5275C40.5057 28.6482 41.112 28.5924 41.6637 28.3672C42.2154 28.142 42.6875 27.7576 43.0199 27.2631C43.3523 26.7685 43.5298 26.1862 43.5299 25.5903C43.5301 24.8049 43.2223 24.0508 42.6726 23.4899C42.1229 22.929 41.3752 22.606 40.5899 22.5903ZM40.5899 55.0103C39.9942 54.9984 39.4084 55.1642 38.9072 55.4865C38.406 55.8088 38.0122 56.273 37.7759 56.8201C37.5396 57.3671 37.4715 57.9721 37.5804 58.5579C37.6893 59.1438 37.9702 59.6839 38.3873 60.1095C38.8044 60.5351 39.3387 60.8268 39.9222 60.9475C40.5057 61.0682 41.112 61.0124 41.6637 60.7872C42.2154 60.562 42.6875 60.1776 43.0199 59.6831C43.3523 59.1885 43.5298 58.6062 43.5299 58.0103C43.5327 57.2232 43.226 56.4665 42.6761 55.9035C42.1261 55.3404 41.3769 55.016 40.5899 55.0003V55.0103ZM28.1399 1.0003C27.5442 0.988381 26.9584 1.15415 26.4572 1.47646C25.956 1.79878 25.5622 2.26305 25.3259 2.81007C25.0896 3.35709 25.0216 3.96208 25.1305 4.54792C25.2394 5.13376 25.5202 5.6739 25.9373 6.09948C26.3544 6.52506 26.8888 6.81681 27.4723 6.93751C28.0558 7.05821 28.662 7.00241 29.2137 6.77722C29.7654 6.55202 30.2375 6.16764 30.5699 5.67307C30.9022 5.17851 31.0798 4.59617 31.0799 4.0003C31.0866 3.60955 31.0155 3.22138 30.8708 2.85834C30.7262 2.49529 30.5108 2.16461 30.2373 1.88549C29.9638 1.60638 29.6375 1.38439 29.2774 1.23243C28.9174 1.08047 28.5307 1.00157 28.1399 1.0003ZM28.1399 55.0003C27.5442 54.9884 26.9584 55.1541 26.4572 55.4765C25.956 55.7988 25.5622 56.263 25.3259 56.8101C25.0896 57.3571 25.0216 57.9621 25.1305 58.5479C25.2394 59.1338 25.5202 59.6739 25.9373 60.0995C26.3544 60.5251 26.8888 60.8168 27.4723 60.9375C28.0558 61.0582 28.662 61.0024 29.2137 60.7772C29.7654 60.552 30.2375 60.1676 30.5699 59.6731C30.9022 59.1785 31.0798 58.5962 31.0799 58.0003C31.0801 57.2149 30.7723 56.4608 30.2226 55.8999C29.6729 55.339 28.9251 55.016 28.1399 55.0003ZM3.24992 33.4003C2.65417 33.3884 2.06836 33.5541 1.56718 33.8765C1.066 34.1988 0.672186 34.663 0.435895 35.2101C0.199604 35.7571 0.13157 36.3621 0.24046 36.9479C0.349351 37.5338 0.630215 38.0739 1.04728 38.4995C1.46435 38.9251 1.99874 39.2168 2.58226 39.3375C3.16578 39.4582 3.77203 39.4024 4.32371 39.1772C4.8754 38.952 5.34748 38.5676 5.67985 38.0731C6.01223 37.5785 6.1898 36.9962 6.18992 36.4003C6.19008 35.6149 5.88226 34.8608 5.33256 34.2999C4.78287 33.739 4.03513 33.416 3.24992 33.4003ZM3.24992 44.2103C2.65417 44.1984 2.06836 44.3641 1.56718 44.6865C1.066 45.0088 0.672186 45.473 0.435895 46.0201C0.199604 46.5671 0.13157 47.1721 0.24046 47.7579C0.349351 48.3438 0.630215 48.8839 1.04728 49.3095C1.46435 49.7351 1.99874 50.0268 2.58226 50.1475C3.16578 50.2682 3.77203 50.2124 4.32371 49.9872C4.8754 49.762 5.34748 49.3776 5.67985 48.8831C6.01223 48.3885 6.1898 47.8062 6.18992 47.2103C6.19008 46.4249 5.88226 45.6708 5.33256 45.1099C4.78287 44.549 4.03513 44.226 3.24992 44.2103ZM90.3799 6.9203C90.9757 6.93221 91.5615 6.76645 92.0627 6.44413C92.5638 6.12181 92.9577 5.65756 93.194 5.11054C93.4303 4.56351 93.4983 3.95851 93.3895 3.37267C93.2806 2.78683 92.9996 2.2467 92.5826 1.82111C92.1655 1.39553 91.6312 1.1038 91.0477 0.983094C90.4641 0.862392 89.8579 0.918187 89.3062 1.14338C88.7545 1.36857 88.2824 1.75296 87.95 2.24752C87.6176 2.74208 87.44 3.32442 87.4399 3.9203C87.4398 4.70566 87.7476 5.45977 88.2973 6.02068C88.847 6.5816 89.5947 6.90459 90.3799 6.9203ZM3.24992 22.5903C2.65417 22.5784 2.06836 22.7441 1.56718 23.0665C1.066 23.3888 0.672186 23.853 0.435895 24.4001C0.199604 24.9471 0.13157 25.5521 0.24046 26.1379C0.349351 26.7238 0.630215 27.2639 1.04728 27.6895C1.46435 28.1151 1.99874 28.4068 2.58226 28.5275C3.16578 28.6482 3.77203 28.5924 4.32371 28.3672C4.8754 28.142 5.34748 27.7576 5.67985 27.2631C6.01223 26.7685 6.1898 26.1862 6.18992 25.5903C6.19008 24.8049 5.88226 24.0508 5.33256 23.4899C4.78287 22.929 4.03513 22.606 3.24992 22.5903ZM3.24992 55.0103C2.65417 54.9984 2.06836 55.1642 1.56718 55.4865C1.066 55.8088 0.672186 56.273 0.435895 56.8201C0.199604 57.3671 0.13157 57.9721 0.24046 58.5579C0.349351 59.1438 0.630215 59.6839 1.04728 60.1095C1.46435 60.5351 1.99874 60.8268 2.58226 60.9475C3.16578 61.0682 3.77203 61.0124 4.32371 60.7872C4.8754 60.562 5.34748 60.1776 5.67985 59.6831C6.01223 59.1885 6.1898 58.6062 6.18992 58.0103C6.1927 57.2232 5.88608 56.4665 5.3361 55.9035C4.78613 55.3404 4.03686 55.016 3.24992 55.0003V55.0103ZM15.6999 33.4003C15.1042 33.3884 14.5184 33.5541 14.0172 33.8765C13.516 34.1988 13.1222 34.663 12.8859 35.2101C12.6496 35.7571 12.5816 36.3621 12.6905 36.9479C12.7994 37.5338 13.0802 38.0739 13.4973 38.4995C13.9144 38.9251 14.4487 39.2168 15.0323 39.3375C15.6158 39.4582 16.222 39.4024 16.7737 39.1772C17.3254 38.952 17.7975 38.5676 18.1299 38.0731C18.4622 37.5785 18.6398 36.9962 18.6399 36.4003C18.6401 35.6149 18.3323 34.8608 17.7826 34.2999C17.2329 33.739 16.4851 33.416 15.6999 33.4003ZM15.6999 22.5903C15.1042 22.5784 14.5184 22.7441 14.0172 23.0665C13.516 23.3888 13.1222 23.853 12.8859 24.4001C12.6496 24.9471 12.5816 25.5521 12.6905 26.1379C12.7994 26.7238 13.0802 27.2639 13.4973 27.6895C13.9144 28.1151 14.4487 28.4068 15.0323 28.5275C15.6158 28.6482 16.222 28.5924 16.7737 28.3672C17.3254 28.142 17.7975 27.7576 18.1299 27.2631C18.4622 26.7685 18.6398 26.1862 18.6399 25.5903C18.6401 24.8049 18.3323 24.0508 17.7826 23.4899C17.2329 22.929 16.4851 22.606 15.6999 22.5903ZM3.24992 11.7803C2.65417 11.7684 2.06836 11.9341 1.56718 12.2565C1.066 12.5788 0.672186 13.043 0.435895 13.5901C0.199604 14.1371 0.13157 14.7421 0.24046 15.3279C0.349351 15.9138 0.630215 16.4539 1.04728 16.8795C1.46435 17.3051 1.99874 17.5968 2.58226 17.7175C3.16578 17.8382 3.77203 17.7824 4.32371 17.5572C4.8754 17.332 5.34748 16.9476 5.67985 16.4531C6.01223 15.9585 6.1898 15.3762 6.18992 14.7803C6.19008 13.9949 5.88226 13.2408 5.33256 12.6799C4.78287 12.119 4.03513 11.796 3.24992 11.7803ZM15.6999 44.2103C15.1042 44.1984 14.5184 44.3641 14.0172 44.6865C13.516 45.0088 13.1222 45.473 12.8859 46.0201C12.6496 46.5671 12.5816 47.1721 12.6905 47.7579C12.7994 48.3438 13.0802 48.8839 13.4973 49.3095C13.9144 49.7351 14.4487 50.0268 15.0323 50.1475C15.6158 50.2682 16.222 50.2124 16.7737 49.9872C17.3254 49.762 17.7975 49.3776 18.1299 48.8831C18.4622 48.3885 18.6398 47.8062 18.6399 47.2103C18.6401 46.4249 18.3323 45.6708 17.7826 45.1099C17.2329 44.549 16.4851 44.226 15.6999 44.2103ZM3.24992 1.0003C2.65417 0.988381 2.06836 1.15415 1.56718 1.47646C1.066 1.79878 0.672186 2.26305 0.435895 2.81007C0.199604 3.35709 0.13157 3.96208 0.24046 4.54792C0.349351 5.13376 0.630215 5.6739 1.04728 6.09948C1.46435 6.52506 1.99874 6.81681 2.58226 6.93751C3.16578 7.05821 3.77203 7.00241 4.32371 6.77722C4.8754 6.55202 5.34748 6.16764 5.67985 5.67307C6.01223 5.17851 6.1898 4.59617 6.18992 4.0003C6.19008 3.21494 5.88226 2.46083 5.33256 1.89991C4.78287 1.339 4.03513 1.01601 3.24992 1.0003ZM15.6999 55.0003C15.1042 54.9884 14.5184 55.1541 14.0172 55.4765C13.516 55.7988 13.1222 56.263 12.8859 56.8101C12.6496 57.3571 12.5816 57.9621 12.6905 58.5479C12.7994 59.1338 13.0802 59.6739 13.4973 60.0995C13.9144 60.5251 14.4487 60.8168 15.0323 60.9375C15.6158 61.0582 16.222 61.0024 16.7737 60.7772C17.3254 60.552 17.7975 60.1676 18.1299 59.6731C18.4622 59.1785 18.6398 58.5962 18.6399 58.0003C18.6401 57.2149 18.3323 56.4608 17.7826 55.8999C17.2329 55.339 16.4851 55.016 15.6999 55.0003ZM28.1399 11.7703C27.5442 11.7584 26.9584 11.9241 26.4572 12.2465C25.956 12.5688 25.5622 13.033 25.3259 13.5801C25.0896 14.1271 25.0216 14.7321 25.1305 15.3179C25.2394 15.9038 25.5202 16.4439 25.9373 16.8695C26.3544 17.2951 26.8888 17.5868 27.4723 17.7075C28.0558 17.8282 28.662 17.7724 29.2137 17.5472C29.7654 17.322 30.2375 16.9376 30.5699 16.4431C30.9022 15.9485 31.0798 15.3662 31.0799 14.7703C31.0775 13.9867 30.7685 13.2351 30.2191 12.6763C29.6697 12.1176 28.9234 11.796 28.1399 11.7803V11.7703ZM77.9299 22.5903C77.3342 22.5784 76.7484 22.7441 76.2472 23.0665C75.746 23.3888 75.3522 23.853 75.1159 24.4001C74.8796 24.9471 74.8116 25.5521 74.9205 26.1379C75.0294 26.7238 75.3102 27.2639 75.7273 27.6895C76.1443 28.1151 76.6787 28.4068 77.2623 28.5275C77.8458 28.6482 78.452 28.5924 79.0037 28.3672C79.5554 28.142 80.0275 27.7576 80.3599 27.2631C80.6923 26.7685 80.8698 26.1862 80.8699 25.5903C80.8701 24.8049 80.5623 24.0508 80.0126 23.4899C79.4629 22.929 78.7151 22.606 77.9299 22.5903ZM77.9299 11.7803C77.3342 11.7684 76.7484 11.9341 76.2472 12.2565C75.746 12.5788 75.3522 13.043 75.1159 13.5901C74.8796 14.1371 74.8116 14.7421 74.9205 15.3279C75.0294 15.9138 75.3102 16.4539 75.7273 16.8795C76.1443 17.3051 76.6787 17.5968 77.2623 17.7175C77.8458 17.8382 78.452 17.7824 79.0037 17.5572C79.5554 17.332 80.0275 16.9476 80.3599 16.4531C80.6923 15.9585 80.8698 15.3762 80.8699 14.7803C80.8701 13.9949 80.5623 13.2408 80.0126 12.6799C79.4629 12.119 78.7151 11.796 77.9299 11.7803ZM77.9299 33.4003C77.3342 33.3884 76.7484 33.5541 76.2472 33.8765C75.746 34.1988 75.3522 34.663 75.1159 35.2101C74.8796 35.7571 74.8116 36.3621 74.9205 36.9479C75.0294 37.5338 75.3102 38.0739 75.7273 38.4995C76.1443 38.9251 76.6787 39.2168 77.2623 39.3375C77.8458 39.4582 78.452 39.4024 79.0037 39.1772C79.5554 38.952 80.0275 38.5676 80.3599 38.0731C80.6923 37.5785 80.8698 36.9962 80.8699 36.4003C80.8701 35.6149 80.5623 34.8608 80.0126 34.2999C79.4629 33.739 78.7151 33.416 77.9299 33.4003ZM65.4899 1.0003C64.8938 0.986385 64.3071 1.15043 63.8046 1.47151C63.3021 1.79258 62.9068 2.2561 62.6689 2.80291C62.4311 3.34972 62.3615 3.955 62.4693 4.54147C62.577 5.12795 62.8571 5.66902 63.2737 6.09561C63.6904 6.5222 64.2247 6.81496 64.8085 6.9365C65.3922 7.05804 65.999 7.00286 66.5513 6.778C67.1035 6.55314 67.5763 6.16881 67.9091 5.67406C68.242 5.17931 68.4198 4.59659 68.42 4.0003C68.4202 3.21663 68.1137 2.46399 67.5661 1.90335C67.0186 1.34271 66.2734 1.01858 65.4899 1.0003ZM77.9299 55.0003C77.3342 54.9884 76.7484 55.1541 76.2472 55.4765C75.746 55.7988 75.3522 56.263 75.1159 56.8101C74.8796 57.3571 74.8116 57.9621 74.9205 58.5479C75.0294 59.1338 75.3102 59.6739 75.7273 60.0995C76.1443 60.5251 76.6787 60.8168 77.2623 60.9375C77.8458 61.0582 78.452 61.0024 79.0037 60.7772C79.5554 60.552 80.0275 60.1676 80.3599 59.6731C80.6923 59.1785 80.8698 58.5962 80.8699 58.0003C80.8701 57.2149 80.5623 56.4608 80.0126 55.8999C79.4629 55.339 78.7151 55.016 77.9299 55.0003ZM77.9299 1.0003C77.3342 0.988381 76.7484 1.15415 76.2472 1.47646C75.746 1.79878 75.3522 2.26305 75.1159 2.81007C74.8796 3.35709 74.8116 3.96208 74.9205 4.54792C75.0294 5.13376 75.3102 5.6739 75.7273 6.09948C76.1443 6.52506 76.6787 6.81681 77.2623 6.93751C77.8458 7.05821 78.452 7.00241 79.0037 6.77722C79.5554 6.55202 80.0275 6.16764 80.3599 5.67307C80.6923 5.17851 80.8698 4.59617 80.8699 4.0003C80.8701 3.21494 80.5623 2.46083 80.0126 1.89991C79.4629 1.339 78.7151 1.01601 77.9299 1.0003ZM77.9299 44.2303C77.3342 44.2184 76.7484 44.3841 76.2472 44.7065C75.746 45.0288 75.3522 45.493 75.1159 46.0401C74.8796 46.5871 74.8116 47.1921 74.9205 47.7779C75.0294 48.3638 75.3102 48.9039 75.7273 49.3295C76.1443 49.7551 76.6787 50.0468 77.2623 50.1675C77.8458 50.2882 78.452 50.2324 79.0037 50.0072C79.5554 49.782 80.0275 49.3976 80.3599 48.9031C80.6923 48.4085 80.8698 47.8262 80.8699 47.2303C80.8753 46.4415 80.5699 45.6823 80.0196 45.117C79.4694 44.5518 78.7186 44.2261 77.9299 44.2103V44.2303ZM90.3799 11.8003C89.7842 11.7884 89.1984 11.9541 88.6972 12.2765C88.196 12.5988 87.8022 13.063 87.5659 13.6101C87.3296 14.1571 87.2616 14.7621 87.3705 15.3479C87.4794 15.9338 87.7602 16.4739 88.1773 16.8995C88.5944 17.3251 89.1287 17.6168 89.7123 17.7375C90.2958 17.8582 90.902 17.8024 91.4537 17.5772C92.0054 17.352 92.4775 16.9676 92.8099 16.4731C93.1422 15.9785 93.3198 15.3962 93.3199 14.8003C93.3253 14.0115 93.0198 13.2523 92.4696 12.687C91.9193 12.1218 91.1686 11.7961 90.3799 11.7803V11.8003ZM90.3799 55.0303C89.7842 55.0184 89.1984 55.1841 88.6972 55.5065C88.196 55.8288 87.8022 56.293 87.5659 56.8401C87.3296 57.3871 87.2616 57.9921 87.3705 58.5779C87.4794 59.1638 87.7602 59.7039 88.1773 60.1295C88.5944 60.5551 89.1287 60.8468 89.7123 60.9675C90.2958 61.0882 90.902 61.0324 91.4537 60.8072C92.0054 60.582 92.4775 60.1976 92.8099 59.7031C93.1422 59.2085 93.3198 58.6262 93.3199 58.0303C93.328 57.2398 93.0237 56.478 92.4731 55.9106C91.9226 55.3432 91.1704 55.0161 90.3799 55.0003V55.0303ZM90.3799 22.6103C89.7842 22.5984 89.1984 22.7641 88.6972 23.0865C88.196 23.4088 87.8022 23.873 87.5659 24.4201C87.3296 24.9671 87.2616 25.5721 87.3705 26.1579C87.4794 26.7438 87.7602 27.2839 88.1773 27.7095C88.5944 28.1351 89.1287 28.4268 89.7123 28.5475C90.2958 28.6682 90.902 28.6124 91.4537 28.3872C92.0054 28.162 92.4775 27.7776 92.8099 27.2831C93.1422 26.7885 93.3198 26.2062 93.3199 25.6103C93.3253 24.8215 93.0198 24.0623 92.4696 23.497C91.9193 22.9318 91.1686 22.6061 90.3799 22.5903V22.6103ZM90.3799 44.2303C89.7842 44.2184 89.1984 44.3841 88.6972 44.7065C88.196 45.0288 87.8022 45.493 87.5659 46.0401C87.3296 46.5871 87.2616 47.1921 87.3705 47.7779C87.4794 48.3638 87.7602 48.9039 88.1773 49.3295C88.5944 49.7551 89.1287 50.0468 89.7123 50.1675C90.2958 50.2882 90.902 50.2324 91.4537 50.0072C92.0054 49.782 92.4775 49.3976 92.8099 48.9031C93.1422 48.4085 93.3198 47.8262 93.3199 47.2303C93.3253 46.4415 93.0198 45.6823 92.4696 45.117C91.9193 44.5518 91.1686 44.2261 90.3799 44.2103V44.2303ZM90.3799 33.4203C89.7842 33.4084 89.1984 33.5741 88.6972 33.8965C88.196 34.2188 87.8022 34.683 87.5659 35.2301C87.3296 35.7771 87.2616 36.3821 87.3705 36.9679C87.4794 37.5538 87.7602 38.0939 88.1773 38.5195C88.5944 38.9451 89.1287 39.2368 89.7123 39.3575C90.2958 39.4782 90.902 39.4224 91.4537 39.1972C92.0054 38.972 92.4775 38.5876 92.8099 38.0931C93.1422 37.5985 93.3198 37.0162 93.3199 36.4203C93.3253 35.6315 93.0198 34.8723 92.4696 34.307C91.9193 33.7418 91.1686 33.4161 90.3799 33.4003V33.4203ZM40.5899 1.0003C39.9942 0.988381 39.4084 1.15415 38.9072 1.47646C38.406 1.79878 38.0122 2.26305 37.7759 2.81007C37.5396 3.35709 37.4715 3.96208 37.5804 4.54792C37.6893 5.13376 37.9702 5.6739 38.3873 6.09948C38.8044 6.52506 39.3387 6.81681 39.9222 6.93751C40.5057 7.05821 41.112 7.00241 41.6637 6.77722C42.2154 6.55202 42.6875 6.16764 43.0199 5.67307C43.3523 5.17851 43.5298 4.59617 43.5299 4.0003C43.5301 3.21494 43.2223 2.46083 42.6726 1.89991C42.1229 1.339 41.3752 1.01601 40.5899 1.0003ZM65.4899 11.8003C64.8938 11.7864 64.3071 11.9504 63.8046 12.2715C63.3021 12.5926 62.9068 13.0561 62.6689 13.6029C62.4311 14.1497 62.3615 14.755 62.4693 15.3415C62.577 15.928 62.8571 16.469 63.2737 16.8956C63.6904 17.3222 64.2247 17.615 64.8085 17.7365C65.3922 17.858 65.999 17.8029 66.5513 17.578C67.1035 17.3531 67.5763 16.9688 67.9091 16.4741C68.242 15.9793 68.4198 15.3966 68.42 14.8003C68.4254 14.0132 68.1213 13.2554 67.5732 12.6905C67.0251 12.1255 66.2768 11.7986 65.4899 11.7803V11.8003ZM53.04 33.4003C52.4442 33.3884 51.8584 33.5541 51.3572 33.8765C50.856 34.1988 50.4622 34.663 50.2259 35.2101C49.9896 35.7571 49.9215 36.3621 50.0304 36.9479C50.1393 37.5338 50.4203 38.0739 50.8373 38.4995C51.2544 38.9251 51.7887 39.2168 52.3722 39.3375C52.9558 39.4582 53.562 39.4024 54.1137 39.1772C54.6654 38.952 55.1375 38.5676 55.4699 38.0731C55.8023 37.5785 55.9798 36.9962 55.98 36.4003C55.9801 35.6149 55.6723 34.8608 55.1226 34.2999C54.5729 33.739 53.8252 33.416 53.04 33.4003ZM53.04 55.0103C52.4442 54.9984 51.8584 55.1642 51.3572 55.4865C50.856 55.8088 50.4622 56.273 50.2259 56.8201C49.9896 57.3671 49.9215 57.9721 50.0304 58.5579C50.1393 59.1438 50.4203 59.6839 50.8373 60.1095C51.2544 60.5351 51.7887 60.8268 52.3722 60.9475C52.9558 61.0682 53.562 61.0124 54.1137 60.7872C54.6654 60.562 55.1375 60.1776 55.4699 59.6831C55.8023 59.1885 55.9798 58.6062 55.98 58.0103C55.9827 57.2232 55.6761 56.4665 55.1261 55.9035C54.5761 55.3404 53.8269 55.016 53.04 55.0003V55.0103ZM53.04 11.7803C52.4442 11.7684 51.8584 11.9341 51.3572 12.2565C50.856 12.5788 50.4622 13.043 50.2259 13.5901C49.9896 14.1371 49.9215 14.7421 50.0304 15.3279C50.1393 15.9138 50.4203 16.4539 50.8373 16.8795C51.2544 17.3051 51.7887 17.5968 52.3722 17.7175C52.9558 17.8382 53.562 17.7824 54.1137 17.5572C54.6654 17.332 55.1375 16.9476 55.4699 16.4531C55.8023 15.9585 55.9798 15.3762 55.98 14.7803C55.9801 13.9949 55.6723 13.2408 55.1226 12.6799C54.5729 12.119 53.8252 11.796 53.04 11.7803ZM53.04 44.2103C52.4442 44.1984 51.8584 44.3641 51.3572 44.6865C50.856 45.0088 50.4622 45.473 50.2259 46.0201C49.9896 46.5671 49.9215 47.1721 50.0304 47.7579C50.1393 48.3438 50.4203 48.8839 50.8373 49.3095C51.2544 49.7351 51.7887 50.0268 52.3722 50.1475C52.9558 50.2682 53.562 50.2124 54.1137 49.9872C54.6654 49.762 55.1375 49.3776 55.4699 48.8831C55.8023 48.3885 55.9798 47.8062 55.98 47.2103C55.9801 46.4249 55.6723 45.6708 55.1226 45.1099C54.5729 44.549 53.8252 44.226 53.04 44.2103ZM53.04 22.5903C52.4442 22.5784 51.8584 22.7441 51.3572 23.0665C50.856 23.3888 50.4622 23.853 50.2259 24.4001C49.9896 24.9471 49.9215 25.5521 50.0304 26.1379C50.1393 26.7238 50.4203 27.2639 50.8373 27.6895C51.2544 28.1151 51.7887 28.4068 52.3722 28.5275C52.9558 28.6482 53.562 28.5924 54.1137 28.3672C54.6654 28.142 55.1375 27.7576 55.4699 27.2631C55.8023 26.7685 55.9798 26.1862 55.98 25.5903C55.9801 24.8049 55.6723 24.0508 55.1226 23.4899C54.5729 22.929 53.8252 22.606 53.04 22.5903ZM65.4899 33.4003C64.8938 33.3864 64.3071 33.5504 63.8046 33.8715C63.3021 34.1926 62.9068 34.6561 62.6689 35.2029C62.4311 35.7497 62.3615 36.355 62.4693 36.9415C62.577 37.528 62.8571 38.069 63.2737 38.4956C63.6904 38.9222 64.2247 39.215 64.8085 39.3365C65.3922 39.458 65.999 39.4029 66.5513 39.178C67.1035 38.9531 67.5763 38.5688 67.9091 38.0741C68.242 37.5793 68.4198 36.9966 68.42 36.4003C68.4202 35.6166 68.1137 34.864 67.5661 34.3033C67.0186 33.7427 66.2734 33.4186 65.4899 33.4003ZM65.4899 22.5903C64.8938 22.5764 64.3071 22.7404 63.8046 23.0615C63.3021 23.3826 62.9068 23.8461 62.6689 24.3929C62.4311 24.9397 62.3615 25.545 62.4693 26.1315C62.577 26.718 62.8571 27.259 63.2737 27.6856C63.6904 28.1122 64.2247 28.405 64.8085 28.5265C65.3922 28.648 65.999 28.5929 66.5513 28.368C67.1035 28.1431 67.5763 27.7588 67.9091 27.2641C68.242 26.7693 68.4198 26.1866 68.42 25.5903C68.4202 24.8066 68.1137 24.054 67.5661 23.4933C67.0186 22.9327 66.2734 22.6086 65.4899 22.5903ZM65.4899 44.2103C64.8938 44.1964 64.3071 44.3604 63.8046 44.6815C63.3021 45.0026 62.9068 45.4661 62.6689 46.0129C62.4311 46.5597 62.3615 47.165 62.4693 47.7515C62.577 48.338 62.8571 48.879 63.2737 49.3056C63.6904 49.7322 64.2247 50.025 64.8085 50.1465C65.3922 50.268 65.999 50.2129 66.5513 49.988C67.1035 49.7631 67.5763 49.3788 67.9091 48.8841C68.242 48.3893 68.4198 47.8066 68.42 47.2103C68.4202 46.4266 68.1137 45.674 67.5661 45.1133C67.0186 44.5527 66.2734 44.2286 65.4899 44.2103ZM53.04 1.0003C52.4442 0.988381 51.8584 1.15415 51.3572 1.47646C50.856 1.79878 50.4622 2.26305 50.2259 2.81007C49.9896 3.35709 49.9215 3.96208 50.0304 4.54792C50.1393 5.13376 50.4203 5.6739 50.8373 6.09948C51.2544 6.52506 51.7887 6.81681 52.3722 6.93751C52.9558 7.05821 53.562 7.00241 54.1137 6.77722C54.6654 6.55202 55.1375 6.16764 55.4699 5.67307C55.8023 5.17851 55.9798 4.59617 55.98 4.0003C55.9801 3.21494 55.6723 2.46083 55.1226 1.89991C54.5729 1.339 53.8252 1.01601 53.04 1.0003ZM65.4899 55.0003C64.8938 54.9864 64.3071 55.1504 63.8046 55.4715C63.3021 55.7926 62.9068 56.2561 62.6689 56.8029C62.4311 57.3497 62.3615 57.955 62.4693 58.5415C62.577 59.128 62.8571 59.669 63.2737 60.0956C63.6904 60.5222 64.2247 60.815 64.8085 60.9365C65.3922 61.058 65.999 61.0029 66.5513 60.778C67.1035 60.5531 67.5763 60.1688 67.9091 59.6741C68.242 59.1793 68.4198 58.5966 68.42 58.0003C68.4202 57.2166 68.1137 56.464 67.5661 55.9034C67.0186 55.3427 66.2734 55.0186 65.4899 55.0003Z" fill="#3367A6"/>
</svg>
