<svg width="899" height="178" viewBox="0 0 899 178" fill="none" xmlns="http://www.w3.org/2000/svg">
<path fill-rule="evenodd" clip-rule="evenodd" d="M168.913 179.001C173.509 176.692 177.047 172.712 178.8 167.877C180.554 163.042 180.39 157.719 178.343 153.001C177.352 150.718 175.906 148.66 174.093 146.954C172.28 145.248 170.138 143.93 167.798 143.079C165.459 142.228 162.97 141.863 160.485 142.006C158 142.149 155.57 142.798 153.343 143.911C149.42 145.874 146.242 149.062 144.292 152.991C142.342 156.921 141.724 161.379 142.533 165.691L128.063 172.811C122.833 165.921 114.063 163.161 105.263 167.501C96.4633 171.841 91.5333 183.841 95.8333 193.501C100.133 203.161 112.263 206.811 120.833 202.581C129.403 198.351 132.753 190.471 131.833 182.301L147.043 174.821C149.722 177.813 153.311 179.84 157.257 180.589C161.203 181.337 165.285 180.765 168.873 178.961L168.913 179.001ZM116.383 192.471C115.443 192.942 114.417 193.216 113.368 193.277C112.319 193.338 111.268 193.184 110.28 192.826C109.292 192.468 108.387 191.912 107.621 191.192C106.855 190.473 106.243 189.605 105.823 188.641C104.954 186.644 104.884 184.39 105.628 182.343C106.373 180.296 107.874 178.613 109.823 177.641C110.763 177.169 111.789 176.894 112.839 176.832C113.888 176.771 114.94 176.924 115.928 177.282C116.917 177.641 117.821 178.197 118.588 178.917C119.354 179.638 119.965 180.507 120.383 181.471C121.253 183.468 121.323 185.722 120.578 187.769C119.834 189.816 118.332 191.499 116.383 192.471V192.471ZM164.383 168.851C163.444 169.323 162.419 169.598 161.37 169.66C160.321 169.721 159.271 169.568 158.283 169.209C157.295 168.851 156.391 168.295 155.626 167.574C154.861 166.854 154.251 165.985 153.833 165.021C152.961 163.025 152.89 160.769 153.635 158.722C154.379 156.674 155.882 154.991 157.833 154.021C158.772 153.549 159.798 153.274 160.846 153.213C161.895 153.151 162.946 153.304 163.934 153.663C164.921 154.021 165.825 154.578 166.591 155.298C167.356 156.018 167.966 156.887 168.383 157.851C169.257 159.845 169.331 162.099 168.59 164.146C167.849 166.193 166.351 167.878 164.403 168.851H164.383Z" fill="#1E4F70"/>
<path fill-rule="evenodd" clip-rule="evenodd" d="M-95.3967 91.3212C-99.989 93.6337 -103.524 97.6143 -105.277 102.448C-107.03 107.281 -106.869 112.602 -104.827 117.321C-103.837 119.606 -102.391 121.664 -100.578 123.371C-98.7653 125.078 -96.6234 126.397 -94.2834 127.248C-91.9435 128.099 -89.4545 128.463 -86.9688 128.319C-84.4831 128.175 -82.0529 127.526 -79.8267 126.411C-75.6562 124.312 -72.3435 120.831 -70.4541 116.562C-68.5647 112.292 -68.2157 107.499 -69.4667 103.001L18.5333 59.7612L20.4333 58.8212L21.1733 56.8212L31.2433 29.0212L117.083 -13.1988C119.71 -9.94939 123.371 -7.69845 127.456 -6.82135C131.542 -5.94424 135.804 -6.49397 139.533 -8.37884C144.131 -10.6858 147.67 -14.666 149.424 -19.5016C151.178 -24.3373 151.013 -29.661 148.963 -34.3788C147.972 -36.6625 146.526 -38.72 144.713 -40.4258C142.899 -42.1315 140.757 -43.4496 138.418 -44.2994C136.078 -45.1493 133.589 -45.5131 131.104 -45.3685C128.619 -45.224 126.189 -44.5742 123.963 -43.4589C120.19 -41.5619 117.107 -38.5282 115.149 -34.7856C113.192 -31.043 112.459 -26.7803 113.053 -22.5988L25.2233 20.6012L23.3233 21.5312L22.5933 23.5312L12.4433 51.3212L-74.7567 94.2112C-77.4958 91.6891 -80.9383 90.0615 -84.6257 89.5452C-88.3131 89.0289 -92.0703 89.6484 -95.3967 91.3212V91.3212ZM128.403 -33.3289C129.342 -33.8006 130.368 -34.0756 131.416 -34.1373C132.465 -34.1989 133.516 -34.0458 134.504 -33.6872C135.491 -33.3286 136.395 -32.7722 137.161 -32.052C137.926 -31.3318 138.536 -30.463 138.953 -29.4988C139.825 -27.5023 139.896 -25.2469 139.152 -23.1993C138.407 -21.1518 136.904 -19.4689 134.953 -18.4988C134.014 -18.0269 132.988 -17.7517 131.938 -17.69C130.888 -17.6283 129.837 -17.7813 128.849 -18.1398C127.86 -18.4983 126.955 -19.0547 126.189 -19.775C125.423 -20.4953 124.812 -21.3643 124.393 -22.3289C123.524 -24.3257 123.454 -26.5802 124.198 -28.627C124.943 -30.6738 126.444 -32.3569 128.393 -33.3289H128.403ZM-90.8867 101.461C-89.9457 100.992 -88.9187 100.719 -87.8688 100.661C-86.8189 100.602 -85.7679 100.758 -84.7804 101.119C-83.7928 101.48 -82.8893 102.039 -82.1253 102.762C-81.3612 103.484 -80.7526 104.355 -80.3367 105.321C-79.4647 107.318 -79.3936 109.573 -80.1381 111.621C-80.8827 113.668 -82.3859 115.351 -84.3367 116.321C-85.2772 116.791 -86.3037 117.065 -87.3534 117.125C-88.4032 117.185 -89.4542 117.031 -90.4424 116.672C-91.4306 116.313 -92.3352 115.756 -93.101 115.035C-93.8668 114.315 -94.4778 113.446 -94.8967 112.481C-95.7689 110.48 -95.8391 108.221 -95.0928 106.17C-94.3465 104.119 -92.8407 102.433 -90.8867 101.461V101.461Z" fill="#1E4F70"/>
<path fill-rule="evenodd" clip-rule="evenodd" d="M69.3433 74.7912C64.751 77.1037 61.2164 81.0843 59.4633 85.9179C57.7102 90.7515 57.8712 96.0724 59.9133 100.791C60.9034 103.076 62.3491 105.134 64.1619 106.841C65.9747 108.548 68.1166 109.867 70.4566 110.718C72.7965 111.569 75.2854 111.933 77.7711 111.789C80.2568 111.646 82.6871 110.996 84.9133 109.881C88.8336 107.912 92.005 104.718 93.9467 100.784C95.8884 96.8505 96.4946 92.3907 95.6733 88.0812L147.533 62.6112C150.112 66.0216 153.804 68.4205 157.967 69.3906C162.131 70.3608 166.503 69.8408 170.323 67.9212C174.917 65.6104 178.454 61.6305 180.209 56.7968C181.964 51.963 181.805 46.6411 179.763 41.9212C178.771 39.6385 177.324 37.5819 175.511 35.877C173.697 34.172 171.555 32.8545 169.216 32.0048C166.876 31.1551 164.388 30.7911 161.904 30.9349C159.419 31.0787 156.989 31.7273 154.763 32.8412C151.074 34.6887 148.041 37.6242 146.074 41.2511C144.106 44.8779 143.3 49.0213 143.763 53.1212L91.2033 78.9812C88.5243 75.9865 84.9337 73.9573 80.9862 73.2072C77.0387 72.4571 72.954 73.0279 69.3633 74.8312L69.3433 74.7912ZM159.233 42.9512C160.173 42.4793 161.199 42.2041 162.249 42.1424C163.298 42.0806 164.35 42.2337 165.338 42.5922C166.327 42.9507 167.231 43.5071 167.998 44.2274C168.764 44.9476 169.375 45.8167 169.793 46.7812C170.663 48.7781 170.733 51.0325 169.988 53.0794C169.244 55.1262 167.742 56.8093 165.793 57.7812C164.855 58.2544 163.829 58.5307 162.78 58.593C161.731 58.6554 160.68 58.5025 159.691 58.1438C158.703 57.7851 157.799 57.2282 157.034 56.5072C156.269 55.7862 155.66 54.9164 155.243 53.9512C154.371 51.9546 154.3 49.6992 155.045 47.6517C155.789 45.6042 157.293 43.9213 159.243 42.9512H159.233ZM73.8533 84.9512C74.792 84.478 75.8174 84.2017 76.8668 84.1393C77.9161 84.0769 78.9671 84.2298 79.9552 84.5885C80.9432 84.9472 81.8475 85.5042 82.6125 86.2252C83.3774 86.9462 83.9868 87.816 84.4033 88.7812C85.2753 90.7778 85.3464 93.0331 84.6018 95.0807C83.8573 97.1282 82.3541 98.8111 80.4033 99.7812C79.463 100.253 78.4364 100.528 77.3863 100.589C76.3362 100.65 75.2846 100.496 74.296 100.136C73.3075 99.7767 72.4027 99.2193 71.637 98.4979C70.8714 97.7766 70.261 96.9066 69.8433 95.9412C68.975 93.9445 68.907 91.6906 69.6533 89.6453C70.3996 87.5999 71.9032 85.9195 73.8533 84.9512Z" fill="#1E4F70"/>
<path fill-rule="evenodd" clip-rule="evenodd" d="M-106.137 200.872C-114.467 204.962 -119.877 217.202 -115.577 226.872C-114.554 229.129 -113.091 231.159 -111.273 232.843C-109.455 234.527 -107.319 235.831 -104.99 236.677C-102.661 237.524 -100.186 237.897 -97.711 237.774C-95.2359 237.651 -92.8104 237.035 -90.5768 235.961C-86.3507 233.92 -82.9877 230.443 -81.0882 226.151C-79.1887 221.859 -78.8763 217.032 -80.2068 212.531L7.7432 169.321L9.6432 168.391L10.3832 166.391L50.5332 71.6015L98.6632 47.9315C101.285 51.1837 104.942 53.4398 109.025 54.3241C113.108 55.2084 117.371 54.6675 121.103 52.7915C125.701 50.4845 129.24 46.5043 130.994 41.6686C132.748 36.833 132.583 31.5093 130.533 26.7914C129.543 24.5069 128.097 22.4484 126.285 20.7416C124.472 19.0348 122.33 17.7157 119.99 16.8649C117.65 16.0141 115.161 15.6494 112.675 15.7933C110.19 15.9371 107.759 16.5864 105.533 17.7015C101.759 19.6002 98.6756 22.6357 96.7182 26.38C94.7608 30.1243 94.028 34.3885 94.6232 38.5715L44.5332 63.1915L42.6432 64.1215L41.9032 66.1215L1.7232 160.872L-85.4668 203.791C-90.8868 198.791 -97.7768 196.792 -106.097 200.872H-106.137ZM110.043 27.8715C110.982 27.3982 112.007 27.122 113.057 27.0596C114.106 26.9973 115.157 27.1501 116.145 27.5088C117.133 27.8675 118.037 28.4245 118.802 29.1455C119.567 29.8665 120.177 30.7363 120.593 31.7015C121.465 33.698 121.536 35.9534 120.792 38.0009C120.047 40.0484 118.544 41.7314 116.593 42.7015C115.654 43.1734 114.628 43.4486 113.578 43.5103C112.528 43.572 111.477 43.419 110.488 43.0605C109.5 42.702 108.595 42.1456 107.829 41.4253C107.063 40.705 106.452 39.836 106.033 38.8715C105.164 36.8746 105.094 34.6201 105.838 32.5733C106.583 30.5265 108.084 28.8434 110.033 27.8715H110.043ZM-101.637 211.021C-100.698 210.551 -99.6725 210.277 -98.6239 210.216C-97.5753 210.155 -96.5253 210.309 -95.5381 210.667C-94.5508 211.026 -93.6469 211.582 -92.8816 212.301C-92.1162 213.02 -91.5056 213.888 -91.0868 214.852C-90.2148 216.848 -90.1437 219.103 -90.8883 221.151C-91.6328 223.198 -93.136 224.881 -95.0868 225.852C-96.0265 226.323 -97.0525 226.599 -98.1022 226.66C-99.1518 226.722 -100.203 226.569 -101.192 226.211C-102.18 225.852 -103.085 225.296 -103.851 224.575C-104.617 223.855 -105.228 222.986 -105.647 222.021C-106.513 220.023 -106.58 217.769 -105.834 215.722C-105.088 213.676 -103.586 211.993 -101.637 211.021V211.021Z" fill="#1E4F70"/>
<path fill-rule="evenodd" clip-rule="evenodd" d="M-41.6966 219.101C-50.0266 223.201 -55.4366 235.441 -51.1366 245.101C-50.1141 247.359 -48.6509 249.389 -46.8328 251.073C-45.0147 252.757 -42.8785 254.061 -40.5495 254.907C-38.2206 255.754 -35.7459 256.127 -33.2708 256.004C-30.7957 255.881 -28.3702 255.265 -26.1366 254.191C-21.9092 252.151 -18.5449 248.675 -16.6452 244.382C-14.7454 240.09 -14.434 235.262 -15.7666 230.761L34.1234 206.321L36.0234 205.391L36.7534 203.391L50.0834 163.391L96.0834 140.771C101.373 147.321 109.783 149.931 118.523 145.631C127.263 141.331 132.263 129.301 127.963 119.631C123.663 109.961 111.623 106.271 102.963 110.541C94.3034 114.811 90.8534 123.051 92.0534 131.411L44.0534 155.011L42.1534 155.941L41.4234 157.941L28.0934 197.941L-21.0666 222.021C-26.4866 217.021 -33.3766 215.021 -41.6966 219.101V219.101ZM107.433 120.571C108.373 120.099 109.399 119.824 110.449 119.763C111.498 119.701 112.55 119.854 113.538 120.212C114.527 120.571 115.432 121.127 116.198 121.848C116.964 122.568 117.575 123.437 117.993 124.401C118.86 126.399 118.929 128.652 118.185 130.698C117.441 132.744 115.941 134.428 113.993 135.401C113.053 135.872 112.028 136.146 110.978 136.207C109.929 136.268 108.878 136.114 107.89 135.756C106.902 135.398 105.997 134.842 105.231 134.122C104.465 133.403 103.853 132.535 103.433 131.571C102.564 129.575 102.494 127.32 103.238 125.273C103.983 123.226 105.484 121.543 107.433 120.571ZM-37.1966 229.251C-36.2568 228.781 -35.2311 228.508 -34.1821 228.448C-33.133 228.388 -32.0827 228.542 -31.0954 228.901C-30.108 229.261 -29.2042 229.818 -28.4393 230.538C-27.6744 231.258 -27.0644 232.127 -26.6466 233.091C-25.7746 235.088 -25.7035 237.343 -26.4481 239.391C-27.1926 241.438 -28.6958 243.121 -30.6466 244.091C-31.5865 244.562 -32.6124 244.836 -33.6617 244.897C-34.711 244.958 -35.7617 244.805 -36.7498 244.446C-37.7379 244.088 -38.6427 243.532 -39.4089 242.812C-40.1751 242.093 -40.7868 241.225 -41.2066 240.261C-42.0733 238.261 -42.1407 236.006 -41.3948 233.958C-40.6489 231.91 -39.1465 230.225 -37.1966 229.251V229.251Z" fill="#1E4F70"/>
<path fill-rule="evenodd" clip-rule="evenodd" d="M491.623 226.191C486.985 228.426 481.666 228.799 476.761 227.233C471.856 225.667 467.738 222.281 465.253 217.771C464.046 215.592 463.296 213.189 463.049 210.709C462.803 208.229 463.066 205.726 463.821 203.351C464.577 200.977 465.809 198.782 467.443 196.901C469.077 195.019 471.078 193.492 473.323 192.411C477.534 190.384 482.318 189.882 486.858 190.991C491.397 192.1 495.411 194.751 498.213 198.491L586.143 155.241L588.043 154.311L590.043 154.971L618.223 163.971L704.063 121.761C703.089 117.697 703.536 113.423 705.327 109.648C707.119 105.873 710.149 102.825 713.913 101.011C718.554 98.7777 723.873 98.4058 728.779 99.9717C733.685 101.538 737.805 104.922 740.293 109.431C741.498 111.612 742.245 114.017 742.489 116.497C742.734 118.977 742.469 121.48 741.713 123.855C740.957 126.229 739.724 128.425 738.091 130.307C736.458 132.189 734.458 133.718 732.213 134.801C728.406 136.631 724.12 137.221 719.96 136.487C715.8 135.753 711.975 133.733 709.023 130.711L621.193 173.901L619.303 174.831L617.243 174.181L589.063 165.181L501.863 208.071C502.196 211.781 501.389 215.504 499.55 218.743C497.712 221.983 494.929 224.584 491.573 226.201L491.623 226.191ZM726.973 125.021C727.92 124.565 728.764 123.92 729.453 123.126C730.142 122.332 730.662 121.406 730.98 120.404C731.298 119.402 731.409 118.346 731.304 117.3C731.2 116.254 730.883 115.24 730.373 114.321C729.323 112.421 727.587 110.996 725.519 110.335C723.451 109.675 721.21 109.831 719.253 110.771C718.306 111.228 717.463 111.872 716.773 112.666C716.084 113.46 715.564 114.385 715.245 115.387C714.926 116.388 714.814 117.445 714.917 118.491C715.02 119.537 715.335 120.551 715.843 121.471C716.895 123.371 718.634 124.798 720.703 125.458C722.772 126.118 725.016 125.961 726.973 125.021ZM486.333 216.421C487.28 215.965 488.124 215.32 488.813 214.526C489.502 213.732 490.022 212.807 490.342 211.805C490.661 210.804 490.772 209.748 490.67 208.701C490.567 207.655 490.252 206.641 489.743 205.721C488.693 203.819 486.955 202.391 484.885 201.731C482.815 201.071 480.571 201.228 478.613 202.171C477.667 202.628 476.825 203.274 476.136 204.068C475.448 204.862 474.929 205.788 474.611 206.789C474.293 207.791 474.182 208.847 474.286 209.892C474.389 210.938 474.705 211.952 475.213 212.871C476.263 214.771 478 216.197 480.068 216.857C482.135 217.517 484.377 217.361 486.333 216.421V216.421Z" fill="#1E4F70"/>
<path fill-rule="evenodd" clip-rule="evenodd" d="M436.433 201.641C431.793 203.877 426.473 204.25 421.567 202.684C416.66 201.118 412.54 197.731 410.053 193.221C408.847 191.041 408.099 188.637 407.854 186.157C407.609 183.678 407.873 181.174 408.63 178.8C409.386 176.426 410.619 174.231 412.253 172.35C413.887 170.469 415.888 168.942 418.133 167.861C422.085 165.956 426.551 165.394 430.852 166.258C435.153 167.123 439.054 169.367 441.963 172.651L493.803 147.151C492.677 143.028 493.032 138.641 494.806 134.753C496.58 130.865 499.661 127.722 503.513 125.871C508.152 123.636 513.47 123.263 518.375 124.829C523.28 126.395 527.399 129.781 529.883 134.291C531.09 136.471 531.838 138.874 532.084 141.353C532.329 143.832 532.066 146.335 531.311 148.709C530.555 151.083 529.323 153.278 527.69 155.159C526.057 157.041 524.058 158.569 521.813 159.651C518.095 161.44 513.918 162.046 509.845 161.388C505.772 160.73 501.999 158.839 499.033 155.971L446.473 181.821C447.214 185.764 446.636 189.842 444.829 193.424C443.021 197.006 440.085 199.894 436.473 201.641H436.433ZM516.533 149.881C517.48 149.425 518.324 148.78 519.013 147.986C519.702 147.192 520.222 146.266 520.54 145.264C520.858 144.262 520.969 143.206 520.864 142.16C520.76 141.114 520.443 140.1 519.933 139.181C518.883 137.281 517.147 135.855 515.079 135.195C513.011 134.535 510.77 134.691 508.813 135.631C507.866 136.087 507.023 136.732 506.333 137.526C505.644 138.319 505.124 139.245 504.805 140.247C504.486 141.248 504.374 142.304 504.477 143.351C504.58 144.397 504.895 145.411 505.403 146.331C506.452 148.235 508.19 149.664 510.261 150.325C512.331 150.985 514.576 150.826 516.533 149.881V149.881ZM431.153 191.881C432.099 191.424 432.942 190.778 433.63 189.984C434.318 189.19 434.837 188.264 435.156 187.263C435.474 186.261 435.585 185.205 435.481 184.16C435.377 183.114 435.062 182.1 434.553 181.181C433.507 179.278 431.77 177.849 429.701 177.188C427.632 176.528 425.389 176.686 423.433 177.631C422.486 178.085 421.641 178.728 420.951 179.521C420.261 180.314 419.741 181.239 419.421 182.24C419.102 183.241 418.991 184.297 419.094 185.343C419.198 186.388 419.514 187.402 420.023 188.321C421.071 190.222 422.808 191.65 424.875 192.312C426.943 192.974 429.186 192.82 431.143 191.881H431.153Z" fill="#1E4F70"/>
<path fill-rule="evenodd" clip-rule="evenodd" d="M272.433 204.641C267.793 206.877 262.473 207.25 257.567 205.684C252.66 204.118 248.54 200.731 246.053 196.221C244.847 194.041 244.099 191.637 243.854 189.157C243.609 186.678 243.873 184.174 244.63 181.8C245.386 179.426 246.619 177.231 248.253 175.35C249.887 173.469 251.888 171.942 254.133 170.861C258.085 168.956 262.551 168.394 266.852 169.258C271.153 170.123 275.054 172.367 277.963 175.651L329.803 150.151C328.677 146.028 329.032 141.641 330.806 137.753C332.58 133.865 335.661 130.722 339.513 128.871C344.152 126.636 349.47 126.263 354.375 127.829C359.28 129.395 363.399 132.781 365.883 137.291C367.09 139.471 367.838 141.874 368.084 144.353C368.329 146.832 368.066 149.335 367.311 151.709C366.555 154.083 365.323 156.278 363.69 158.159C362.057 160.041 360.058 161.569 357.813 162.651C354.095 164.44 349.918 165.046 345.845 164.388C341.772 163.73 337.999 161.839 335.033 158.971L282.473 184.821C283.214 188.764 282.636 192.842 280.829 196.424C279.021 200.006 276.085 202.894 272.473 204.641H272.433ZM352.533 152.881C353.48 152.425 354.324 151.78 355.013 150.986C355.702 150.192 356.222 149.266 356.54 148.264C356.858 147.262 356.969 146.206 356.864 145.16C356.76 144.114 356.443 143.1 355.933 142.181C354.883 140.281 353.147 138.855 351.079 138.195C349.011 137.535 346.77 137.691 344.813 138.631C343.866 139.087 343.023 139.732 342.333 140.526C341.644 141.319 341.124 142.245 340.805 143.247C340.486 144.248 340.374 145.304 340.477 146.351C340.58 147.397 340.895 148.411 341.403 149.331C342.452 151.235 344.19 152.664 346.261 153.325C348.331 153.985 350.576 153.826 352.533 152.881V152.881ZM267.153 194.881C268.099 194.424 268.942 193.778 269.63 192.984C270.318 192.19 270.837 191.264 271.156 190.263C271.474 189.261 271.585 188.205 271.481 187.16C271.377 186.114 271.062 185.1 270.553 184.181C269.507 182.278 267.77 180.849 265.701 180.188C263.632 179.528 261.389 179.686 259.433 180.631C258.486 181.085 257.641 181.728 256.951 182.521C256.261 183.314 255.741 184.239 255.421 185.24C255.102 186.241 254.991 187.297 255.094 188.343C255.198 189.388 255.514 190.402 256.023 191.321C257.071 193.222 258.808 194.65 260.875 195.312C262.943 195.974 265.186 195.82 267.143 194.881H267.153Z" fill="#1E4F70"/>
<path fill-rule="evenodd" clip-rule="evenodd" d="M605.273 105.791C600.633 108.027 595.313 108.4 590.407 106.834C585.5 105.268 581.38 101.881 578.893 97.3707C577.688 95.1893 576.941 92.7851 576.697 90.3051C576.453 87.8251 576.717 85.3213 577.473 82.9468C578.23 80.5724 579.462 78.3771 581.095 76.495C582.729 74.613 584.729 73.0837 586.973 72.0007C590.928 70.1021 595.394 69.5426 599.695 70.4067C603.996 71.2709 607.899 73.5118 610.813 76.7907L662.643 51.3207C661.517 47.1967 661.871 42.8082 663.645 38.9185C665.419 35.0288 668.501 31.884 672.353 30.0308C676.993 27.795 682.313 27.4217 687.22 28.9878C692.126 30.5539 696.247 33.9403 698.733 38.4508C699.939 40.6319 700.688 43.0362 700.933 45.5166C701.178 47.9969 700.914 50.5012 700.157 52.876C699.401 55.2509 698.168 57.4465 696.534 59.3284C694.9 61.2103 692.899 62.7389 690.653 63.8208C686.937 65.6088 682.762 66.2147 678.69 65.5567C674.619 64.8987 670.847 63.0085 667.883 60.1408L615.323 85.9907C616.059 89.9337 615.479 94.0092 613.672 97.5903C611.865 101.171 608.932 104.06 605.323 105.811L605.273 105.791ZM685.363 54.0308C686.311 53.5754 687.156 52.9312 687.846 52.1377C688.536 51.3442 689.057 50.4181 689.376 49.4161C689.695 48.4142 689.806 47.3577 689.703 46.3112C689.599 45.2648 689.283 44.2506 688.773 43.3308C687.723 41.4287 685.985 40.0009 683.915 39.3406C681.845 38.6804 679.601 38.8379 677.643 39.7808C676.697 40.2381 675.854 40.8836 675.166 41.6776C674.478 42.4717 673.959 43.3977 673.641 44.3991C673.323 45.4005 673.212 46.4564 673.315 47.502C673.419 48.5477 673.735 49.5612 674.243 50.4807C675.293 52.3803 677.03 53.8063 679.097 54.4664C681.165 55.1264 683.407 54.9706 685.363 54.0308V54.0308ZM599.983 96.0308C600.93 95.5743 601.774 94.9295 602.463 94.1359C603.152 93.3422 603.672 92.4163 603.991 91.4148C604.311 90.4133 604.422 89.3572 604.319 88.3111C604.216 87.265 603.901 86.2509 603.393 85.3308C602.341 83.4305 600.603 82.0043 598.534 81.3442C596.464 80.6842 594.221 80.8404 592.263 81.7808C591.316 82.2372 590.472 82.882 589.783 83.6757C589.094 84.4693 588.574 85.3952 588.255 86.3967C587.936 87.3982 587.824 88.4543 587.927 89.5004C588.03 90.5465 588.345 91.5606 588.853 92.4807C589.905 94.3811 591.644 95.8067 593.714 96.465C595.784 97.1233 598.027 96.9644 599.983 96.0208V96.0308Z" fill="#1E4F70"/>
<path fill-rule="evenodd" clip-rule="evenodd" d="M408.133 162.981C399.803 167.081 386.813 163.891 381.753 154.561C380.587 152.372 379.871 149.972 379.647 147.501C379.423 145.031 379.695 142.541 380.448 140.178C381.201 137.815 382.419 135.626 384.031 133.741C385.643 131.856 387.616 130.312 389.833 129.201C394.029 127.098 398.836 126.556 403.395 127.669C407.954 128.783 411.969 131.481 414.723 135.281L502.653 92.041L504.543 91.101L506.603 91.761L598.293 121.651L646.423 97.981C644.423 89.791 647.533 81.541 656.273 77.241C665.013 72.941 677.603 76.331 682.653 85.661C687.703 94.991 683.263 106.751 674.573 111.021C665.883 115.291 657.273 113.021 651.383 106.931L601.273 131.581L599.373 132.511L597.313 131.861L505.623 101.961L418.413 144.861C419.083 152.211 416.413 158.861 408.133 162.981V162.981ZM669.283 101.261C670.23 100.805 671.074 100.16 671.763 99.3661C672.452 98.5724 672.972 97.6465 673.292 96.645C673.611 95.6435 673.722 94.5874 673.619 93.5413C673.517 92.4952 673.201 91.4811 672.693 90.561C671.644 88.6496 669.901 87.2142 667.824 86.5516C665.747 85.8891 663.495 86.0499 661.533 87.001C660.587 87.4583 659.744 88.1038 659.056 88.8978C658.368 89.6919 657.849 90.618 657.531 91.6194C657.213 92.6208 657.102 93.6766 657.206 94.7222C657.309 95.7679 657.625 96.7814 658.133 97.701C659.18 99.6041 660.916 101.034 662.984 101.696C665.052 102.358 667.296 102.202 669.253 101.261H669.283ZM402.843 153.261C403.79 152.805 404.633 152.162 405.322 151.369C406.012 150.576 406.532 149.651 406.851 148.65C407.17 147.65 407.282 146.594 407.179 145.549C407.076 144.504 406.761 143.49 406.253 142.571C405.205 140.667 403.466 139.238 401.396 138.577C399.325 137.917 397.08 138.076 395.123 139.021C394.177 139.476 393.333 140.12 392.644 140.913C391.955 141.706 391.435 142.631 391.116 143.631C390.796 144.632 390.685 145.687 390.787 146.733C390.89 147.778 391.205 148.792 391.713 149.711C392.77 151.606 394.512 153.025 396.582 153.676C398.652 154.327 400.892 154.16 402.843 153.211V153.261Z" fill="#1E4F70"/>
<path fill-rule="evenodd" clip-rule="evenodd" d="M652.173 187.861C647.578 190.17 644.04 194.15 642.286 198.985C640.533 203.82 640.696 209.143 642.743 213.861C643.734 216.146 645.179 218.204 646.992 219.911C648.805 221.618 650.947 222.937 653.287 223.788C655.627 224.638 658.116 225.003 660.601 224.859C663.087 224.715 665.517 224.066 667.743 222.951C671.916 220.849 675.23 217.364 677.121 213.092C679.012 208.819 679.363 204.023 678.113 199.521L766.063 156.321L767.963 155.391L768.693 153.391L778.773 125.581L864.603 83.321C867.226 86.5756 870.885 88.8332 874.97 89.7175C879.055 90.6019 883.32 90.0596 887.053 88.181C891.647 85.8703 895.184 81.8899 896.937 77.0556C898.69 72.2213 898.528 66.8995 896.483 62.181C895.491 59.8983 894.044 57.8417 892.231 56.1368C890.417 54.4319 888.276 53.1144 885.936 52.2647C883.597 51.415 881.108 51.0509 878.624 51.1947C876.139 51.3385 873.709 51.9871 871.483 53.101C867.709 54.9885 864.621 58.013 862.657 61.7483C860.692 65.4836 859.95 69.7412 860.533 73.921L772.713 117.121L770.813 118.051L770.073 120.051L760.003 147.861L672.793 190.751C670.061 188.221 666.622 186.586 662.935 186.064C659.248 185.542 655.49 186.159 652.163 187.831L652.173 187.861ZM875.963 63.211C876.903 62.7391 877.929 62.4638 878.979 62.4021C880.028 62.3404 881.08 62.4935 882.068 62.852C883.057 63.2105 883.962 63.7669 884.728 64.4872C885.494 65.2075 886.105 66.0764 886.523 67.041C887.393 69.0379 887.463 71.2924 886.718 73.3392C885.974 75.386 884.472 77.069 882.523 78.041C881.584 78.5127 880.559 78.7878 879.51 78.8494C878.461 78.9111 877.411 78.7579 876.423 78.3994C875.435 78.0408 874.531 77.4844 873.766 76.7642C873.001 76.044 872.391 75.1752 871.973 74.211C871.101 72.2144 871.03 69.959 871.775 67.9115C872.519 65.864 874.023 64.1811 875.973 63.211H875.963ZM656.673 198.011C657.614 197.541 658.64 197.267 659.69 197.207C660.74 197.147 661.791 197.301 662.779 197.66C663.767 198.02 664.672 198.577 665.438 199.297C666.203 200.018 666.815 200.887 667.233 201.851C668.1 203.848 668.169 206.102 667.425 208.148C666.681 210.194 665.181 211.877 663.233 212.851C662.294 213.321 661.268 213.594 660.219 213.655C659.17 213.715 658.12 213.561 657.132 213.201C656.145 212.842 655.241 212.285 654.476 211.564C653.711 210.844 653.101 209.975 652.683 209.011C651.811 207.016 651.738 204.761 652.481 202.714C653.223 200.666 654.724 198.983 656.673 198.011V198.011Z" fill="#1E4F70"/>
<path fill-rule="evenodd" clip-rule="evenodd" d="M604.943 322.691C596.623 326.781 591.213 339.021 595.513 348.691C596.536 350.949 597.999 352.979 599.817 354.663C601.635 356.347 603.771 357.65 606.1 358.497C608.429 359.344 610.904 359.717 613.379 359.594C615.854 359.471 618.28 358.855 620.513 357.781C624.741 355.741 628.105 352.264 630.005 347.972C631.904 343.68 632.216 338.852 630.883 334.351L746.383 277.551L748.283 276.611L749.013 274.611L801.943 180.931L850.063 157.261C855.353 163.811 863.763 166.421 872.513 162.121C881.263 157.821 886.243 145.791 881.943 136.121C877.643 126.451 865.613 122.761 856.943 127.031C848.273 131.301 844.833 139.541 846.023 147.901L795.913 172.551L794.013 173.481L793.273 175.481L740.353 269.161L625.583 325.611C620.173 320.611 613.273 318.611 604.943 322.691V322.691ZM861.453 137.161C862.392 136.689 863.417 136.414 864.466 136.353C865.515 136.291 866.566 136.444 867.554 136.803C868.541 137.161 869.445 137.718 870.21 138.438C870.976 139.158 871.586 140.027 872.003 140.991C872.873 142.988 872.942 145.242 872.198 147.289C871.454 149.336 869.952 151.019 868.003 151.991C867.064 152.463 866.038 152.737 864.988 152.798C863.939 152.859 862.888 152.705 861.9 152.346C860.913 151.986 860.009 151.428 859.244 150.707C858.479 149.986 857.87 149.116 857.453 148.151C856.576 146.155 856.502 143.898 857.247 141.849C857.993 139.8 859.499 138.117 861.453 137.151V137.161ZM609.453 332.841C610.393 332.371 611.419 332.098 612.468 332.038C613.517 331.977 614.567 332.132 615.554 332.491C616.542 332.85 617.446 333.407 618.211 334.128C618.975 334.848 619.585 335.717 620.003 336.681C620.875 338.678 620.946 340.933 620.202 342.981C619.457 345.028 617.954 346.711 616.003 347.681C615.063 348.151 614.036 348.425 612.986 348.485C611.937 348.545 610.886 348.391 609.897 348.032C608.909 347.673 608.005 347.116 607.239 346.395C606.473 345.675 605.862 344.806 605.443 343.841C604.577 341.843 604.51 339.588 605.256 337.542C606.002 335.496 607.504 333.813 609.453 332.841V332.841Z" fill="#1E4F70"/>
</svg>
