<svg width="1030" height="183" viewBox="0 0 1030 183" fill="none" xmlns="http://www.w3.org/2000/svg">
<path fill-rule="evenodd" clip-rule="evenodd" d="M1080.97 234.31C1084.94 236.323 1089.52 236.739 1093.79 235.475C1098.05 234.21 1101.67 231.36 1103.9 227.51C1104.97 225.651 1105.66 223.593 1105.91 221.461C1106.16 219.329 1105.97 217.168 1105.36 215.11C1104.75 213.052 1103.73 211.14 1102.36 209.489C1100.99 207.839 1099.29 206.485 1097.38 205.51C1094 203.798 1090.15 203.234 1086.42 203.903C1082.69 204.572 1079.28 206.439 1076.71 209.22L1032.4 186.28C1033.45 182.74 1033.22 178.943 1031.76 175.552C1030.3 172.16 1027.69 169.389 1024.4 167.72C1020.43 165.706 1015.85 165.288 1011.58 166.553C1007.32 167.818 1003.7 170.669 1001.47 174.52C1000.4 176.38 999.714 178.438 999.463 180.57C999.211 182.702 999.396 184.862 1000.01 186.921C1000.62 188.979 1001.64 190.891 1003.01 192.542C1004.38 194.192 1006.08 195.546 1007.99 196.52C1011.17 198.13 1014.77 198.727 1018.29 198.232C1021.82 197.736 1025.12 196.172 1027.73 193.75L1072.65 217.01C1071.95 220.408 1072.38 223.942 1073.88 227.069C1075.39 230.196 1077.88 232.74 1080.97 234.31V234.31ZM1012.74 188.18C1011.93 187.77 1011.21 187.198 1010.63 186.5C1010.05 185.803 1009.62 184.994 1009.36 184.123C1009.1 183.252 1009.03 182.338 1009.13 181.437C1009.24 180.535 1009.53 179.665 1009.99 178.88C1010.93 177.255 1012.45 176.052 1014.25 175.518C1016.05 174.984 1017.99 175.16 1019.66 176.01C1020.47 176.421 1021.19 176.993 1021.77 177.69C1022.35 178.388 1022.78 179.197 1023.04 180.068C1023.3 180.938 1023.37 181.853 1023.27 182.754C1023.16 183.656 1022.87 184.525 1022.41 185.31C1021.47 186.934 1019.94 188.136 1018.15 188.67C1016.35 189.203 1014.41 189.028 1012.74 188.18V188.18ZM1085.74 225.97C1084.93 225.56 1084.21 224.988 1083.63 224.29C1083.05 223.593 1082.62 222.784 1082.36 221.913C1082.1 221.042 1082.03 220.128 1082.13 219.227C1082.24 218.325 1082.53 217.455 1082.99 216.67C1083.93 215.047 1085.46 213.845 1087.25 213.311C1089.05 212.777 1090.99 212.953 1092.66 213.8C1093.47 214.212 1094.19 214.784 1094.77 215.482C1095.35 216.18 1095.78 216.989 1096.03 217.859C1096.29 218.729 1096.37 219.643 1096.26 220.544C1096.15 221.445 1095.86 222.315 1095.41 223.1C1094.47 224.729 1092.94 225.935 1091.14 226.469C1089.33 227.003 1087.4 226.824 1085.72 225.97H1085.74Z" fill="#8DA500"/>
<path fill-rule="evenodd" clip-rule="evenodd" d="M808.33 91.2C804.398 89.1237 801.412 85.6193 799.985 81.4079C798.558 77.1966 798.8 72.5986 800.66 68.56C801.556 66.6035 802.841 64.8503 804.438 63.4079C806.034 61.9655 807.908 60.8642 809.946 60.1715C811.983 59.4787 814.14 59.209 816.285 59.379C818.43 59.549 820.518 60.155 822.42 61.16C825.768 62.9285 828.448 65.7402 830.054 69.1688C831.66 72.5974 832.104 76.456 831.32 80.16L843.7 86.57C845.925 83.587 849.16 81.5171 852.801 80.7476C856.442 79.9782 860.239 80.5621 863.48 82.39C871.03 86.3 875.04 96.75 871.15 105.04C867.26 113.33 856.73 116.25 849.38 112.44C842.03 108.63 839.31 101.77 840.26 94.7299L827.26 88C824.892 90.5362 821.755 92.2219 818.334 92.7967C814.912 93.3715 811.397 92.8034 808.33 91.18V91.2ZM853.46 103.77C854.263 104.194 855.143 104.45 856.048 104.522C856.953 104.593 857.863 104.48 858.722 104.188C859.582 103.896 860.372 103.431 861.046 102.823C861.72 102.215 862.262 101.475 862.64 100.65C863.422 98.9456 863.522 97.0063 862.92 95.2304C862.317 93.4545 861.058 91.9766 859.4 91.0999C858.598 90.6759 857.717 90.4202 856.812 90.3484C855.907 90.2765 854.997 90.3901 854.138 90.6822C853.278 90.9743 852.488 91.4388 851.814 92.0471C851.14 92.6554 850.598 93.3947 850.22 94.2199C849.435 95.924 849.334 97.8641 849.937 99.6407C850.54 101.417 851.801 102.895 853.46 103.77V103.77ZM812.46 82.52C813.263 82.9425 814.143 83.1971 815.048 83.2682C815.952 83.3392 816.862 83.2254 817.721 82.9334C818.58 82.6415 819.37 82.1776 820.044 81.5702C820.718 80.9627 821.261 80.2242 821.64 79.4C822.423 77.6941 822.523 75.7534 821.921 73.9758C821.318 72.1982 820.059 70.7185 818.4 69.8399C817.598 69.4159 816.717 69.1603 815.812 69.0885C814.907 69.0166 813.997 69.1303 813.138 69.4223C812.278 69.7144 811.488 70.1788 810.814 70.7871C810.14 71.3954 809.598 72.1348 809.22 72.96C808.433 74.66 808.326 76.596 808.919 78.3728C809.512 80.1495 810.76 81.633 812.41 82.52H812.46Z" fill="#8DA500"/>
<path fill-rule="evenodd" clip-rule="evenodd" d="M808.28 141.66C804.347 139.582 801.36 136.076 799.932 131.864C798.503 127.651 798.743 123.052 800.6 119.01C801.495 117.054 802.781 115.301 804.378 113.858C805.974 112.416 807.849 111.314 809.886 110.622C811.923 109.929 814.08 109.659 816.225 109.829C818.37 109.999 820.457 110.605 822.36 111.61C825.708 113.379 828.388 116.19 829.994 119.619C831.6 123.047 832.044 126.906 831.26 130.61L843.64 137.02C848.28 131.16 855.86 128.94 863.42 132.85C870.98 136.76 874.98 147.2 871.09 155.49C867.2 163.78 856.67 166.7 849.33 162.89C841.99 159.08 839.25 152.22 840.2 145.18L827.2 138.45C824.835 140.987 821.701 142.674 818.281 143.251C814.861 143.828 811.346 143.261 808.28 141.64V141.66ZM853.4 154.22C854.202 154.644 855.082 154.901 855.986 154.973C856.891 155.046 857.8 154.933 858.66 154.642C859.519 154.351 860.31 153.887 860.984 153.28C861.658 152.673 862.201 151.934 862.58 151.11C863.363 149.404 863.463 147.464 862.861 145.686C862.258 143.908 860.999 142.429 859.34 141.55C858.538 141.126 857.657 140.87 856.752 140.799C855.847 140.727 854.937 140.84 854.078 141.132C853.219 141.425 852.428 141.889 851.754 142.497C851.08 143.105 850.538 143.845 850.16 144.67C849.375 146.374 849.274 148.314 849.877 150.091C850.479 151.867 851.74 153.345 853.4 154.22ZM812.35 132.97C813.153 133.394 814.033 133.65 814.938 133.722C815.843 133.793 816.753 133.68 817.612 133.388C818.472 133.096 819.262 132.631 819.936 132.023C820.61 131.415 821.152 130.675 821.53 129.85C822.315 128.146 822.416 126.206 821.813 124.429C821.211 122.653 819.95 121.175 818.29 120.3C817.488 119.876 816.607 119.62 815.702 119.549C814.797 119.477 813.887 119.59 813.028 119.882C812.168 120.175 811.378 120.639 810.704 121.247C810.03 121.855 809.488 122.595 809.11 123.42C808.33 125.128 808.235 127.07 808.843 128.846C809.451 130.623 810.717 132.099 812.38 132.97H812.35Z" fill="#8DA500"/>
<path fill-rule="evenodd" clip-rule="evenodd" d="M1038.14 20.2105C1042.07 22.2888 1045.06 25.7943 1046.49 30.0067C1047.92 34.2192 1047.68 38.8188 1045.82 42.8604C1044.92 44.8162 1043.64 46.5686 1042.04 48.0103C1040.44 49.452 1038.56 50.5527 1036.53 51.2453C1034.49 51.9379 1032.33 52.2077 1030.19 52.0384C1028.04 51.869 1025.95 51.2641 1024.05 50.2604C1020.48 48.372 1017.68 45.3034 1016.13 41.5789C1014.57 37.8544 1014.36 33.7052 1015.52 29.8404L940.36 -9.09958L938.74 -9.93954L938.14 -11.7096L929.94 -35.8996L856.57 -73.8996C854.247 -71.1379 851.047 -69.2554 847.504 -68.5658C843.962 -67.8762 840.29 -68.4211 837.1 -70.1096C833.168 -72.186 830.181 -75.6898 828.753 -79.9006C827.324 -84.1114 827.563 -88.7094 829.42 -92.7496C830.317 -94.7065 831.603 -96.4597 833.201 -97.9022C834.798 -99.3447 836.673 -100.446 838.711 -101.139C840.749 -101.831 842.907 -102.101 845.053 -101.931C847.198 -101.761 849.287 -101.155 851.19 -100.15C854.407 -98.4381 857.006 -95.7601 858.621 -92.4931C860.236 -89.2262 860.784 -85.5349 860.19 -81.9395L935.26 -43.0696L936.88 -42.2296L937.48 -40.4596L945.68 -16.2696L1020.22 22.3305C1022.63 20.1972 1025.63 18.8484 1028.82 18.4643C1032.01 18.0801 1035.25 18.6788 1038.09 20.1805L1038.14 20.2105ZM847.14 -91.4395C846.336 -91.8608 845.455 -92.1143 844.55 -92.1848C843.645 -92.2552 842.736 -92.1411 841.876 -91.8493C841.017 -91.5576 840.226 -91.0943 839.551 -90.4875C838.876 -89.8808 838.331 -89.1432 837.95 -88.3196C837.17 -86.6133 837.071 -84.6736 837.673 -82.8967C838.275 -81.1198 839.533 -79.64 841.19 -78.7596C841.994 -78.3384 842.875 -78.0848 843.78 -78.0144C844.685 -77.9439 845.594 -78.0581 846.454 -78.3498C847.313 -78.6416 848.104 -79.1049 848.779 -79.7116C849.454 -80.3184 849.999 -81.056 850.38 -81.8796C851.163 -83.5855 851.263 -85.5261 850.661 -87.3037C850.058 -89.0812 848.799 -90.561 847.14 -91.4395V-91.4395ZM1034.14 28.9004C1033.34 28.4764 1032.46 28.2207 1031.55 28.1488C1030.65 28.077 1029.74 28.1906 1028.88 28.4827C1028.02 28.7748 1027.23 29.2391 1026.55 29.8474C1025.88 30.4557 1025.34 31.1952 1024.96 32.0204C1024.18 33.7249 1024.08 35.6641 1024.68 37.44C1025.28 39.2159 1026.54 40.6938 1028.2 41.5705C1029 41.9945 1029.88 42.2502 1030.79 42.3221C1031.69 42.3939 1032.6 42.2803 1033.46 41.9882C1034.32 41.6961 1035.11 41.2316 1035.79 40.6233C1036.46 40.015 1037 39.2757 1037.38 38.4505C1038.16 36.738 1038.25 34.7914 1037.63 33.0137C1037.02 31.236 1035.74 29.7633 1034.07 28.9004H1034.14Z" fill="#8DA500"/>
<path fill-rule="evenodd" clip-rule="evenodd" d="M1049.4 71.1603C1053.33 73.2367 1056.32 76.7405 1057.75 80.9513C1059.18 85.1621 1058.94 89.7601 1057.08 93.8003C1056.18 95.7572 1054.9 97.5104 1053.3 98.9529C1051.7 100.395 1049.83 101.497 1047.79 102.189C1045.75 102.882 1043.59 103.152 1041.45 102.982C1039.3 102.812 1037.21 102.205 1035.31 101.2C1031.96 99.4318 1029.28 96.6201 1027.68 93.1915C1026.07 89.763 1025.63 85.9043 1026.41 82.2003L982.11 59.2603C979.82 62.1573 976.587 64.1607 972.974 64.9225C969.361 65.6843 965.595 65.1563 962.33 63.4303C958.397 61.352 955.41 57.8464 953.982 53.6339C952.553 49.4214 952.792 44.8219 954.65 40.7803C955.548 38.8244 956.835 37.0722 958.432 35.6305C960.03 34.1888 961.905 33.088 963.942 32.3954C965.98 31.7028 968.137 31.433 970.283 31.6023C972.428 31.7716 974.516 32.3766 976.42 33.3803C979.569 35.0483 982.132 37.6405 983.764 40.8084C985.396 43.9762 986.02 47.5677 985.55 51.1002L1030.47 74.3602C1032.84 71.8226 1035.97 70.1358 1039.4 69.5609C1042.82 68.9861 1046.33 69.5553 1049.4 71.1803V71.1603ZM972.4 42.0503C971.596 41.6276 970.715 41.3728 969.81 41.3016C968.905 41.2305 967.995 41.3443 967.135 41.6362C966.275 41.9281 965.484 42.3919 964.809 42.9995C964.134 43.6071 963.59 44.3457 963.21 45.1703C962.425 46.8744 962.324 48.8144 962.927 50.591C963.529 52.3675 964.79 53.8454 966.45 54.7202C967.253 55.1444 968.135 55.4004 969.04 55.4723C969.946 55.5442 970.856 55.4307 971.717 55.1387C972.577 54.8467 973.368 54.3822 974.043 53.7738C974.718 53.1654 975.261 52.4258 975.64 51.6002C976.422 49.8958 976.522 47.9567 975.92 46.1808C975.317 44.4049 974.058 42.9269 972.4 42.0503ZM1045.4 79.8402C1044.6 79.4175 1043.72 79.1629 1042.81 79.0917C1041.9 79.0205 1040.99 79.1343 1040.13 79.4262C1039.27 79.7181 1038.48 80.182 1037.81 80.7896C1037.13 81.3971 1036.59 82.1358 1036.21 82.9603C1035.43 84.6662 1035.33 86.6069 1035.93 88.3844C1036.53 90.162 1037.79 91.6417 1039.45 92.5203C1040.25 92.9428 1041.13 93.1974 1042.04 93.2684C1042.94 93.3395 1043.85 93.2257 1044.71 92.9337C1045.57 92.6418 1046.36 92.1779 1047.03 91.5704C1047.71 90.963 1048.25 90.2245 1048.63 89.4003C1049.41 87.6876 1049.5 85.7404 1048.89 83.9612C1048.27 82.182 1047 80.7067 1045.33 79.8402H1045.4Z" fill="#8DA500"/>
<path fill-rule="evenodd" clip-rule="evenodd" d="M896.18 3.00012C900.112 5.07657 903.099 8.58031 904.527 12.7911C905.956 17.002 905.717 21.6 903.86 25.6401C902.963 27.597 901.677 29.3504 900.079 30.7928C898.482 32.2353 896.607 33.3366 894.569 34.0293C892.531 34.722 890.373 34.9916 888.227 34.8215C886.082 34.6515 883.993 34.0453 882.09 33.0402C878.742 31.2716 876.062 28.46 874.456 25.0314C872.85 21.6028 872.406 17.7442 873.19 14.0402L828.89 -8.8999C826.6 -6.00286 823.367 -3.99945 819.754 -3.23767C816.141 -2.4759 812.375 -3.00384 809.11 -4.72986C805.177 -6.80821 802.19 -10.3138 800.762 -14.5262C799.333 -18.7387 799.572 -23.3382 801.43 -27.3799C802.328 -29.3357 803.615 -31.088 805.212 -32.5297C806.81 -33.9713 808.685 -35.0721 810.722 -35.7646C812.76 -36.4572 814.917 -36.7272 817.063 -36.5579C819.208 -36.3885 821.296 -35.7836 823.2 -34.7799C826.349 -33.1119 828.912 -30.5196 830.544 -27.3518C832.176 -24.184 832.8 -20.5923 832.33 -17.0598L877.25 6.2002C879.617 3.66255 882.754 1.97574 886.176 1.40088C889.598 0.826019 893.114 1.39511 896.18 3.02014V3.00012ZM819.13 -26.0999C818.327 -26.5239 817.447 -26.7796 816.542 -26.8514C815.637 -26.9233 814.727 -26.8097 813.868 -26.5176C813.008 -26.2255 812.218 -25.7611 811.544 -25.1528C810.87 -24.5445 810.328 -23.8051 809.95 -22.9799C809.162 -21.2773 809.058 -19.3373 809.659 -17.5602C810.26 -15.7831 811.52 -14.3045 813.18 -13.4298C813.982 -13.0058 814.863 -12.75 815.768 -12.6782C816.673 -12.6064 817.583 -12.72 818.442 -13.0121C819.301 -13.3042 820.092 -13.7686 820.766 -14.377C821.44 -14.9853 821.982 -15.7246 822.36 -16.5498C823.148 -18.2523 823.252 -20.1924 822.651 -21.9695C822.05 -23.7466 820.789 -25.2251 819.13 -26.0999V-26.0999ZM892.13 11.6902C891.326 11.2675 890.445 11.0127 889.54 10.9415C888.635 10.8703 887.725 10.9842 886.865 11.2761C886.005 11.568 885.214 12.0318 884.539 12.6394C883.864 13.247 883.32 13.9856 882.94 14.8102C882.157 16.5161 882.057 18.4567 882.659 20.2343C883.262 22.0118 884.521 23.4916 886.18 24.3701C886.984 24.794 887.866 25.0494 888.772 25.1206C889.678 25.1918 890.589 25.0774 891.449 24.7844C892.309 24.4914 893.101 24.0261 893.775 23.4166C894.449 22.8072 894.992 22.0665 895.37 21.2401C896.153 19.5322 896.252 17.5887 895.646 15.8102C895.039 14.0316 893.774 12.5535 892.11 11.6802L892.13 11.6902Z" fill="#8DA500"/>
<path fill-rule="evenodd" clip-rule="evenodd" d="M1045.46 115.01C1052.58 118.69 1057.03 129.36 1053.14 137.66C1052.22 139.593 1050.91 141.322 1049.31 142.744C1047.71 144.167 1045.84 145.255 1043.81 145.945C1041.78 146.634 1039.64 146.911 1037.5 146.759C1035.37 146.607 1033.28 146.03 1031.37 145.06C1027.76 143.22 1024.92 140.156 1023.36 136.416C1021.79 132.676 1021.61 128.503 1022.84 124.64L947.68 85.7204L946.06 84.8804L945.46 83.1204L912.46 0.58046L871.33 -20.7196C869.005 -17.9594 865.806 -16.0782 862.264 -15.3887C858.722 -14.6991 855.05 -15.2429 851.86 -16.9296C847.927 -19.0079 844.94 -22.5135 843.512 -26.7259C842.083 -30.9384 842.322 -35.5379 844.18 -39.5796C845.078 -41.5354 846.365 -43.2878 847.962 -44.7295C849.56 -46.1711 851.435 -47.2719 853.472 -47.9645C855.51 -48.6571 857.667 -48.9269 859.813 -48.7576C861.958 -48.5882 864.046 -47.9833 865.95 -46.9796C869.167 -45.2652 871.765 -42.5852 873.38 -39.3169C874.994 -36.0485 875.543 -32.3563 874.95 -28.7596L917.79 -6.57957L919.41 -5.73961L920.01 -3.96959L953.01 78.5604L1027.54 117.16C1032.31 112.93 1038.3 111.32 1045.41 115.01H1045.46ZM861.88 -38.2895C861.076 -38.7122 860.195 -38.967 859.29 -39.0382C858.385 -39.1094 857.475 -38.9956 856.615 -38.7037C855.755 -38.4118 854.964 -37.9479 854.289 -37.3403C853.614 -36.7327 853.07 -35.9941 852.69 -35.1695C851.905 -33.4655 851.804 -31.5255 852.407 -29.7489C853.009 -27.9723 854.27 -26.4944 855.93 -25.6196C856.733 -25.1954 857.615 -24.9396 858.52 -24.8677C859.426 -24.7957 860.336 -24.9092 861.197 -25.2013C862.057 -25.4933 862.848 -25.9576 863.523 -26.566C864.198 -27.1744 864.741 -27.914 865.12 -28.7396C865.902 -30.444 866.002 -32.3833 865.4 -34.1592C864.797 -35.9351 863.538 -37.4129 861.88 -38.2895V-38.2895ZM1041.39 123.71C1040.59 123.286 1039.71 123.031 1038.8 122.959C1037.9 122.887 1036.99 123.001 1036.13 123.293C1035.27 123.585 1034.48 124.049 1033.8 124.657C1033.13 125.266 1032.59 126.005 1032.21 126.83C1031.43 128.535 1031.33 130.474 1031.93 132.25C1032.53 134.026 1033.79 135.504 1035.45 136.38C1036.25 136.804 1037.13 137.06 1038.04 137.132C1038.94 137.204 1039.85 137.09 1040.71 136.798C1041.57 136.506 1042.36 136.042 1043.04 135.433C1043.71 134.825 1044.25 134.086 1044.63 133.26C1045.42 131.555 1045.52 129.613 1044.92 127.834C1044.31 126.055 1043.05 124.575 1041.39 123.7V123.71Z" fill="#8DA500"/>
<path fill-rule="evenodd" clip-rule="evenodd" d="M958.77 158.04C962.703 160.119 965.69 163.624 967.118 167.837C968.547 172.049 968.308 176.649 966.45 180.69C965.553 182.646 964.266 184.398 962.668 185.84C961.07 187.281 959.194 188.382 957.156 189.073C955.119 189.765 952.961 190.034 950.816 189.863C948.67 189.692 946.583 189.086 944.68 188.08C941.335 186.309 938.657 183.497 937.051 180.069C935.445 176.641 934.999 172.784 935.78 169.08L923.41 162.67C921.185 165.653 917.95 167.723 914.309 168.493C910.668 169.262 906.871 168.678 903.63 166.85C896.08 162.94 892.06 152.5 895.95 144.2C899.84 135.9 910.37 133 917.72 136.8C925.07 140.6 927.79 147.47 926.85 154.51L939.85 161.24C942.219 158.707 945.356 157.023 948.777 156.449C952.198 155.874 955.713 156.44 958.78 158.06L958.77 158.04ZM913.65 145.47C912.847 145.046 911.967 144.79 911.062 144.719C910.157 144.647 909.247 144.76 908.388 145.052C907.528 145.344 906.738 145.809 906.064 146.417C905.39 147.026 904.848 147.765 904.47 148.59C903.685 150.293 903.582 152.232 904.183 154.009C904.783 155.785 906.042 157.264 907.7 158.14C908.502 158.566 909.383 158.823 910.288 158.895C911.193 158.968 912.104 158.854 912.964 158.562C913.823 158.27 914.614 157.805 915.288 157.196C915.961 156.587 916.503 155.846 916.88 155.02C917.668 153.318 917.772 151.378 917.171 149.6C916.57 147.823 915.31 146.345 913.65 145.47V145.47ZM954.7 166.72C953.897 166.298 953.015 166.044 952.111 165.974C951.206 165.903 950.296 166.018 949.437 166.311C948.578 166.604 947.787 167.069 947.114 167.677C946.441 168.286 945.898 169.025 945.52 169.85C944.735 171.553 944.632 173.492 945.232 175.269C945.833 177.045 947.092 178.524 948.75 179.4C949.554 179.823 950.435 180.078 951.34 180.149C952.245 180.22 953.155 180.106 954.015 179.814C954.875 179.522 955.666 179.059 956.341 178.451C957.016 177.843 957.56 177.105 957.94 176.28C958.723 174.574 958.823 172.634 958.221 170.856C957.618 169.078 956.359 167.599 954.7 166.72V166.72Z" fill="#8DA500"/>
<path fill-rule="evenodd" clip-rule="evenodd" d="M989.49 129.6C996.6 133.29 1001.06 143.95 997.17 152.25C996.246 154.183 994.945 155.912 993.343 157.334C991.741 158.757 989.872 159.845 987.843 160.534C985.815 161.224 983.669 161.501 981.532 161.349C979.395 161.197 977.31 160.62 975.4 159.65C971.789 157.81 968.949 154.746 967.386 151.006C965.824 147.266 965.641 143.093 966.87 139.23L924.28 117.16L922.65 116.32L922.05 114.55L911.28 79.7602L871.97 59.4102C867.29 64.9702 859.97 67.0702 852.5 63.2002C845.03 59.3302 840.93 48.8502 844.82 40.5602C848.71 32.2702 859.17 29.3102 866.59 33.1602C874.01 37.0102 876.83 44.1601 875.59 51.3701L916.59 72.6101L918.21 73.4502L918.81 75.2102L929.6 110L971.6 131.75C976.37 127.52 982.36 125.92 989.47 129.6H989.49ZM862.49 41.8401C861.687 41.4161 860.807 41.1605 859.902 41.0886C858.997 41.0168 858.087 41.1304 857.228 41.4225C856.368 41.7146 855.578 42.1789 854.904 42.7873C854.23 43.3956 853.688 44.135 853.31 44.9602C852.525 46.6643 852.424 48.6043 853.027 50.3809C853.629 52.1575 854.89 53.6353 856.55 54.5102C857.352 54.9345 858.232 55.1908 859.136 55.2633C860.041 55.3358 860.95 55.223 861.81 54.9319C862.669 54.6408 863.46 54.1775 864.134 53.5702C864.808 52.9629 865.351 52.2245 865.73 51.4002C866.515 49.6946 866.617 47.7531 866.014 45.9749C865.411 44.1966 864.15 42.7168 862.49 41.8401V41.8401ZM985.49 138.29C984.687 137.866 983.807 137.61 982.902 137.539C981.997 137.467 981.087 137.58 980.228 137.872C979.368 138.165 978.578 138.629 977.904 139.237C977.23 139.846 976.688 140.585 976.31 141.41C975.525 143.114 975.424 145.054 976.027 146.831C976.629 148.608 977.89 150.085 979.55 150.96C980.353 151.384 981.233 151.64 982.138 151.712C983.043 151.784 983.953 151.67 984.812 151.378C985.671 151.086 986.462 150.621 987.136 150.013C987.81 149.405 988.352 148.665 988.73 147.84C989.509 146.128 989.6 144.181 988.984 142.403C988.368 140.626 987.092 139.153 985.42 138.29H985.49Z" fill="#8DA500"/>
<path fill-rule="evenodd" clip-rule="evenodd" d="M293.05 285.99C294.969 286.964 296.67 288.32 298.047 289.974C299.424 291.629 300.449 293.547 301.06 295.611C301.67 297.675 301.853 299.842 301.596 301.979C301.34 304.116 300.651 306.179 299.57 308.04C297.341 311.89 293.723 314.74 289.458 316.004C285.194 317.269 280.607 316.852 276.64 314.84C273.13 313.058 270.412 310.031 269.017 306.35C267.623 302.669 267.652 298.6 269.1 294.94L193.94 256.02L192.32 255.18L191.81 253.46L184.81 229.91L111.44 191.91C108.85 194.557 105.483 196.309 101.828 196.912C98.1741 197.514 94.4229 196.936 91.12 195.26C89.2074 194.285 87.5132 192.932 86.1406 191.281C84.7679 189.631 83.7454 187.718 83.1355 185.66C82.5255 183.602 82.3408 181.441 82.5926 179.31C82.8444 177.178 83.5273 175.12 84.6 173.26C86.8267 169.411 90.4432 166.562 94.7061 165.297C98.969 164.032 103.554 164.448 107.52 166.46C110.69 168.067 113.226 170.696 114.718 173.923C116.209 177.149 116.569 180.784 115.74 184.24L190.8 223.12L192.43 223.96L192.94 225.68L199.94 249.23L274.48 287.83C277.088 285.799 280.22 284.552 283.51 284.235C286.8 283.918 290.113 284.544 293.06 286.04L293.05 285.99ZM102.81 174.75C101.137 173.902 99.2022 173.727 97.4039 174.261C95.6055 174.795 94.0798 175.997 93.1399 177.62C92.6838 178.405 92.3926 179.275 92.2844 180.177C92.1762 181.078 92.2532 181.992 92.5107 182.863C92.7681 183.733 93.2007 184.542 93.7817 185.24C94.3628 185.938 95.0802 186.509 95.8899 186.92C97.5628 187.771 99.4981 187.947 101.297 187.413C103.096 186.879 104.622 185.675 105.56 184.05C106.016 183.265 106.307 182.395 106.415 181.494C106.524 180.592 106.447 179.678 106.189 178.807C105.932 177.937 105.499 177.128 104.918 176.43C104.337 175.733 103.62 175.161 102.81 174.75ZM288.28 294.33C286.607 293.482 284.672 293.307 282.874 293.841C281.076 294.375 279.55 295.577 278.61 297.2C278.154 297.985 277.863 298.855 277.754 299.757C277.646 300.658 277.723 301.572 277.981 302.443C278.238 303.313 278.671 304.122 279.252 304.82C279.833 305.518 280.55 306.089 281.36 306.5C283.033 307.348 284.968 307.523 286.766 306.989C288.564 306.456 290.09 305.254 291.03 303.63C291.486 302.845 291.777 301.975 291.885 301.074C291.994 300.172 291.917 299.258 291.659 298.387C291.402 297.517 290.969 296.708 290.388 296.01C289.807 295.312 289.09 294.741 288.28 294.33V294.33Z" fill="#8DA500"/>
<path fill-rule="evenodd" clip-rule="evenodd" d="M215.21 211.32C219.175 213.332 223.761 213.748 228.024 212.483C232.287 211.218 235.903 208.369 238.13 204.52C239.203 202.661 239.886 200.602 240.137 198.471C240.389 196.339 240.204 194.178 239.594 192.12C238.984 190.062 237.962 188.149 236.589 186.499C235.217 184.848 233.522 183.495 231.61 182.52C228.01 180.695 223.888 180.177 219.948 181.055C216.008 181.932 212.496 184.15 210.01 187.33L134.86 148.41L133.23 147.57L131.45 148.1L106.95 155.36L33.5899 117.36C34.5013 113.868 34.1908 110.17 32.7101 106.879C31.2293 103.589 28.6674 100.904 25.4499 99.27C21.4829 97.2577 16.896 96.8411 12.6314 98.1058C8.36683 99.3705 4.7485 102.22 2.51989 106.07C1.44727 107.929 0.764274 109.988 0.512507 112.119C0.26074 114.251 0.445459 116.412 1.05541 118.47C1.66537 120.528 2.68781 122.441 4.06048 124.091C5.43315 125.742 7.12735 127.095 9.03991 128.07C12.2952 129.72 15.9861 130.306 19.5922 129.746C23.1984 129.186 26.5379 127.509 29.1399 124.95L104.21 163.82L105.83 164.66L107.62 164.14L132.11 156.87L206.65 195.47C206.296 198.668 206.925 201.897 208.455 204.728C209.984 207.558 212.341 209.854 215.21 211.31V211.32ZM13.7899 119.74C12.9801 119.329 12.2628 118.758 11.6817 118.06C11.1006 117.362 10.6681 116.553 10.4106 115.683C10.1532 114.812 10.0762 113.898 10.1844 112.996C10.2926 112.095 10.5837 111.225 11.0399 110.44C11.9797 108.817 13.5055 107.615 15.3038 107.081C17.1022 106.547 19.0366 106.722 20.7099 107.57C21.5186 107.982 22.235 108.554 22.8152 109.252C23.3955 109.95 23.8275 110.758 24.0848 111.629C24.3422 112.499 24.4194 113.413 24.312 114.314C24.2046 115.215 23.9146 116.085 23.4599 116.87C22.5201 118.493 20.9943 119.695 19.196 120.229C17.3976 120.763 15.4632 120.588 13.7899 119.74V119.74ZM219.95 202.98C219.14 202.569 218.423 201.998 217.842 201.3C217.261 200.602 216.828 199.793 216.571 198.923C216.313 198.052 216.236 197.138 216.344 196.236C216.453 195.335 216.744 194.465 217.2 193.68C218.138 192.055 219.664 190.851 221.463 190.317C223.262 189.783 225.197 189.96 226.87 190.81C227.68 191.221 228.397 191.792 228.978 192.49C229.559 193.188 229.992 193.997 230.249 194.867C230.507 195.738 230.584 196.652 230.475 197.554C230.367 198.455 230.076 199.325 229.62 200.11C228.68 201.733 227.154 202.935 225.356 203.469C223.558 204.003 221.623 203.828 219.95 202.98V202.98Z" fill="#8DA500"/>
<path fill-rule="evenodd" clip-rule="evenodd" d="M854.4 295.24C861.52 298.92 872.8 296.41 877.33 288.44C878.367 286.572 879.022 284.516 879.255 282.392C879.488 280.269 879.296 278.12 878.689 276.071C878.082 274.023 877.072 272.116 875.719 270.462C874.366 268.808 872.697 267.441 870.81 266.44C867.223 264.554 863.083 264.002 859.128 264.883C855.172 265.764 851.657 268.02 849.21 271.25L716.85 202.71L715.22 201.87L713.43 202.4L688.94 209.67L615.57 171.67C616.484 168.18 616.176 164.482 614.697 161.191C613.218 157.899 610.657 155.214 607.44 153.58C603.473 151.568 598.886 151.151 594.621 152.416C590.357 153.681 586.738 156.53 584.51 160.38C583.437 162.239 582.754 164.298 582.503 166.43C582.251 168.561 582.435 170.722 583.045 172.78C583.655 174.838 584.678 176.751 586.05 178.401C587.423 180.051 589.117 181.405 591.03 182.38C594.285 184.03 597.976 184.616 601.582 184.056C605.188 183.496 608.528 181.819 611.13 179.26L686.2 218.14L687.82 218.98L689.61 218.44L714.1 211.18L845.85 279.41C845.14 285.74 847.29 291.56 854.4 295.24V295.24ZM595.77 174.04C594.961 173.628 594.245 173.056 593.664 172.358C593.084 171.66 592.652 170.852 592.395 169.981C592.138 169.111 592.06 168.197 592.168 167.296C592.275 166.395 592.565 165.525 593.02 164.74C593.962 163.116 595.489 161.914 597.289 161.38C599.089 160.846 601.025 161.022 602.7 161.87C603.509 162.282 604.225 162.854 604.805 163.552C605.385 164.25 605.817 165.059 606.073 165.93C606.33 166.8 606.406 167.714 606.297 168.615C606.188 169.516 605.896 170.386 605.44 171.17C604.502 172.795 602.976 173.999 601.177 174.533C599.378 175.067 597.443 174.89 595.77 174.04V174.04ZM859.15 286.9C858.34 286.489 857.623 285.917 857.042 285.22C856.46 284.523 856.027 283.714 855.769 282.844C855.511 281.973 855.433 281.059 855.539 280.158C855.646 279.256 855.935 278.386 856.39 277.6C857.333 275.978 858.861 274.777 860.66 274.243C862.459 273.71 864.395 273.884 866.07 274.73C866.88 275.141 867.597 275.712 868.178 276.41C868.759 277.108 869.192 277.917 869.449 278.787C869.707 279.658 869.784 280.572 869.675 281.474C869.567 282.375 869.276 283.245 868.82 284.03C867.882 285.655 866.356 286.859 864.557 287.393C862.758 287.927 860.823 287.75 859.15 286.9V286.9Z" fill="#8DA500"/>
<path fill-rule="evenodd" clip-rule="evenodd" d="M929.43 288.97C936.77 292.78 947.82 290.14 952.35 282.17C953.368 280.298 954.008 278.243 954.231 276.124C954.455 274.004 954.258 271.861 953.652 269.818C953.047 267.774 952.044 265.871 950.702 264.215C949.36 262.56 947.704 261.185 945.83 260.17C942.473 258.357 938.601 257.737 934.846 258.411C931.092 259.085 927.677 261.013 925.16 263.88L796.73 197.37C797.777 193.829 797.55 190.033 796.088 186.642C794.627 183.252 792.023 180.48 788.73 178.81C784.765 176.796 780.179 176.378 775.915 177.643C771.651 178.908 768.035 181.759 765.81 185.61C764.737 187.469 764.054 189.528 763.803 191.66C763.551 193.791 763.736 195.952 764.346 198.01C764.955 200.068 765.978 201.981 767.351 203.631C768.723 205.282 770.417 206.635 772.33 207.61C775.508 209.22 779.102 209.817 782.63 209.322C786.157 208.827 789.448 207.262 792.06 204.84L921.12 271.67C919.7 278.47 922.12 285.16 929.44 288.96L929.43 288.97ZM777.06 199.28C776.25 198.869 775.533 198.298 774.952 197.6C774.371 196.902 773.938 196.093 773.681 195.223C773.423 194.352 773.346 193.438 773.454 192.536C773.563 191.635 773.854 190.765 774.31 189.98C775.248 188.355 776.774 187.151 778.573 186.617C780.372 186.083 782.307 186.26 783.98 187.11C784.79 187.521 785.507 188.092 786.088 188.79C786.669 189.488 787.102 190.297 787.359 191.167C787.617 192.038 787.694 192.952 787.585 193.854C787.477 194.755 787.186 195.625 786.73 196.41C785.79 198.033 784.264 199.236 782.466 199.769C780.668 200.303 778.733 200.128 777.06 199.28ZM934.17 280.63C933.36 280.219 932.643 279.648 932.062 278.95C931.481 278.252 931.048 277.443 930.791 276.573C930.533 275.702 930.456 274.788 930.564 273.886C930.673 272.985 930.964 272.115 931.42 271.33C932.361 269.708 933.888 268.508 935.686 267.977C937.484 267.445 939.418 267.621 941.09 268.47C941.9 268.881 942.617 269.452 943.198 270.15C943.779 270.848 944.212 271.657 944.469 272.527C944.727 273.398 944.804 274.312 944.695 275.214C944.587 276.115 944.296 276.985 943.84 277.77C942.9 279.394 941.374 280.595 939.575 281.127C937.776 281.659 935.842 281.481 934.17 280.63V280.63Z" fill="#8DA500"/>
<path fill-rule="evenodd" clip-rule="evenodd" d="M701.21 159.61C705.177 161.625 709.764 162.043 714.03 160.778C718.295 159.513 721.913 156.662 724.14 152.81C725.214 150.951 725.898 148.893 726.151 146.761C726.403 144.629 726.219 142.467 725.609 140.409C724.999 138.35 723.976 136.438 722.602 134.787C721.229 133.137 719.534 131.784 717.62 130.81C714.241 129.093 710.393 128.526 706.662 129.195C702.931 129.865 699.521 131.735 696.95 134.52L652.64 111.57C653.685 108.029 653.457 104.234 651.996 100.844C650.534 97.4534 647.932 94.6818 644.64 93.0102C640.673 90.998 636.086 90.5814 631.821 91.846C627.557 93.1107 623.939 95.9607 621.71 99.8103C620.629 101.672 619.94 103.734 619.683 105.871C619.427 108.008 619.61 110.176 620.22 112.24C620.831 114.304 621.856 116.222 623.233 117.876C624.61 119.53 626.311 120.886 628.23 121.86C631.407 123.473 635.002 124.072 638.53 123.576C642.059 123.081 645.35 121.515 647.96 119.09L692.89 142.36C692.184 145.756 692.616 149.29 694.12 152.415C695.624 155.54 698.116 158.083 701.21 159.65V159.61ZM632.97 113.48C632.16 113.07 631.443 112.498 630.862 111.8C630.281 111.103 629.848 110.294 629.591 109.423C629.333 108.552 629.256 107.638 629.364 106.737C629.473 105.835 629.764 104.965 630.22 104.18C631.16 102.557 632.686 101.355 634.485 100.823C636.284 100.291 638.218 100.469 639.89 101.32C640.7 101.729 641.418 102.299 642 102.995C642.582 103.692 643.016 104.5 643.274 105.37C643.533 106.24 643.611 107.153 643.503 108.055C643.396 108.956 643.106 109.825 642.65 110.61C641.708 112.234 640.181 113.437 638.381 113.97C636.581 114.504 634.645 114.329 632.97 113.48V113.48ZM705.97 151.27C705.16 150.86 704.443 150.288 703.862 149.59C703.281 148.893 702.848 148.084 702.591 147.213C702.333 146.342 702.256 145.428 702.364 144.527C702.473 143.625 702.764 142.755 703.22 141.97C704.16 140.347 705.686 139.145 707.485 138.613C709.284 138.081 711.218 138.259 712.89 139.11C713.699 139.52 714.417 140.091 714.998 140.787C715.579 141.484 716.011 142.292 716.269 143.162C716.526 144.032 716.603 144.945 716.495 145.846C716.387 146.747 716.096 147.616 715.64 148.4C714.703 150.032 713.174 151.241 711.37 151.776C709.565 152.31 707.624 152.129 705.95 151.27H705.97Z" fill="#8DA500"/>
<path fill-rule="evenodd" clip-rule="evenodd" d="M912.48 234.31C919.6 237.99 930.88 235.48 935.41 227.51C936.447 225.642 937.102 223.587 937.335 221.463C937.569 219.339 937.376 217.19 936.769 215.141C936.162 213.093 935.152 211.186 933.8 209.532C932.447 207.879 930.778 206.511 928.89 205.51C925.303 203.624 921.163 203.072 917.208 203.953C913.252 204.834 909.738 207.091 907.29 210.32L798.49 153.9L796.87 153.06L795.08 153.59L708.63 174.28L667.5 152.97C668.413 149.48 668.103 145.783 666.622 142.493C665.141 139.204 662.578 136.521 659.36 134.89C655.393 132.876 650.806 132.458 646.54 133.723C642.275 134.987 638.657 137.839 636.43 141.69C635.356 143.549 634.672 145.608 634.419 147.74C634.167 149.872 634.351 152.033 634.961 154.092C635.571 156.15 636.594 158.063 637.968 159.713C639.341 161.363 641.037 162.717 642.95 163.69C646.205 165.34 649.896 165.926 653.502 165.366C657.108 164.807 660.448 163.129 663.05 160.57L705.89 182.76L707.51 183.6L709.3 183.07L795.75 162.38L903.93 218.38C903.22 224.72 905.37 230.54 912.48 234.22V234.31ZM647.7 155.42C646.89 155.01 646.173 154.438 645.592 153.74C645.011 153.043 644.578 152.234 644.321 151.363C644.063 150.492 643.986 149.578 644.094 148.677C644.203 147.775 644.494 146.905 644.95 146.12C645.89 144.497 647.416 143.295 649.214 142.761C651.012 142.227 652.947 142.402 654.62 143.25C655.43 143.662 656.148 144.235 656.729 144.933C657.31 145.632 657.743 146.442 658 147.313C658.257 148.185 658.334 149.099 658.226 150.002C658.118 150.904 657.826 151.775 657.37 152.56C656.429 154.182 654.902 155.382 653.104 155.914C651.306 156.446 649.372 156.269 647.7 155.42V155.42ZM917.28 225.97C916.47 225.56 915.753 224.988 915.172 224.29C914.591 223.593 914.158 222.784 913.901 221.913C913.643 221.042 913.566 220.128 913.675 219.227C913.783 218.325 914.074 217.455 914.53 216.67C915.47 215.047 916.996 213.845 918.794 213.311C920.592 212.777 922.527 212.952 924.2 213.8C925.01 214.211 925.727 214.783 926.308 215.48C926.889 216.178 927.322 216.987 927.579 217.858C927.837 218.728 927.914 219.642 927.806 220.544C927.697 221.445 927.406 222.315 926.95 223.1C926.012 224.726 924.486 225.929 922.687 226.463C920.888 226.997 918.953 226.821 917.28 225.97Z" fill="#8DA500"/>
<path fill-rule="evenodd" clip-rule="evenodd" d="M528.82 126.17C532.784 128.183 537.369 128.601 541.632 127.338C545.894 126.075 549.511 123.227 551.74 119.38C552.812 117.521 553.495 115.463 553.747 113.331C553.999 111.199 553.814 109.038 553.204 106.98C552.594 104.922 551.572 103.01 550.199 101.359C548.827 99.7088 547.132 98.3551 545.22 97.3803C541.62 95.5556 537.498 95.0377 533.558 95.915C529.618 96.7923 526.105 99.0104 523.62 102.19L448.47 63.2703L446.85 62.4304L445.06 62.9604L420.57 70.2203L347.2 32.2203C348.113 28.7288 347.804 25.0299 346.323 21.7387C344.842 18.4476 342.279 15.7625 339.06 14.1303C335.093 12.1181 330.506 11.7015 326.241 12.9661C321.977 14.2308 318.358 17.0808 316.13 20.9304C315.057 22.7898 314.374 24.848 314.123 26.9798C313.871 29.1116 314.055 31.2724 314.665 33.3305C315.275 35.3887 316.298 37.3011 317.67 38.9515C319.043 40.6019 320.737 41.9557 322.65 42.9304C325.905 44.58 329.596 45.1662 333.202 44.6064C336.808 44.0466 340.148 42.3692 342.75 39.8104L417.82 78.6804L419.44 79.5203L421.23 78.9903L445.72 71.7303L520.26 110.33C519.905 113.527 520.534 116.755 522.064 119.584C523.594 122.413 525.951 124.707 528.82 126.16V126.17ZM327.4 34.6003C326.59 34.1896 325.873 33.618 325.292 32.9204C324.711 32.2227 324.278 31.4137 324.021 30.5431C323.763 29.6724 323.686 28.7583 323.794 27.8568C323.903 26.9553 324.194 26.0854 324.65 25.3004C325.59 23.6769 327.115 22.4749 328.914 21.9411C330.712 21.4074 332.647 21.5825 334.32 22.4304C335.13 22.8411 335.847 23.4128 336.428 24.1104C337.009 24.8081 337.442 25.6169 337.699 26.4876C337.957 27.3583 338.034 28.2724 337.925 29.1739C337.817 30.0754 337.526 30.9453 337.07 31.7303C336.13 33.3538 334.604 34.5558 332.806 35.0896C331.008 35.6233 329.073 35.4482 327.4 34.6003ZM533.56 117.83C532.75 117.421 532.033 116.85 531.452 116.153C530.871 115.456 530.439 114.648 530.181 113.778C529.924 112.909 529.847 111.995 529.955 111.095C530.063 110.194 530.354 109.325 530.81 108.54C531.748 106.915 533.274 105.712 535.073 105.178C536.872 104.644 538.807 104.82 540.48 105.67C541.29 106.081 542.007 106.653 542.588 107.35C543.169 108.048 543.602 108.857 543.859 109.728C544.117 110.598 544.194 111.512 544.085 112.414C543.977 113.315 543.686 114.185 543.23 114.97C542.29 116.594 540.764 117.795 538.965 118.327C537.166 118.86 535.232 118.682 533.56 117.83V117.83Z" fill="#8DA500"/>
<path fill-rule="evenodd" clip-rule="evenodd" d="M576.92 105.97C580.887 107.982 585.474 108.399 589.739 107.134C594.003 105.87 597.621 103.02 599.85 99.1701C600.923 97.3107 601.606 95.2523 601.857 93.1205C602.109 90.9887 601.924 88.8281 601.314 86.77C600.705 84.7118 599.682 82.7994 598.309 81.149C596.937 79.4986 595.243 78.1448 593.33 77.1701C589.95 75.4576 586.103 74.8932 582.374 75.5627C578.644 76.2321 575.234 78.0988 572.66 80.8801L528.35 57.9001C529.397 54.3592 529.17 50.5633 527.709 47.1724C526.247 43.7816 523.643 41.0101 520.35 39.34C516.383 37.3253 511.796 36.9074 507.53 38.1723C503.265 39.4372 499.647 42.2887 497.42 46.1401C496.346 47.9991 495.662 50.0575 495.409 52.1896C495.157 54.3218 495.341 56.483 495.951 58.5416C496.561 60.6001 497.584 62.5128 498.958 64.163C500.331 65.8133 502.026 67.1664 503.94 68.1401C507.116 69.7555 510.712 70.3561 514.241 69.8607C517.77 69.3652 521.061 67.7976 523.67 65.3701L568.6 88.6401C567.895 92.0371 568.328 95.5719 569.831 98.6985C571.335 101.825 573.826 104.37 576.92 105.94V105.97ZM508.68 59.84C507.871 59.4283 507.155 58.8561 506.575 58.1583C505.994 57.4605 505.562 56.6517 505.305 55.7814C505.048 54.9111 504.97 53.9975 505.078 53.0964C505.185 52.1952 505.475 51.3255 505.93 50.5401C506.87 48.9166 508.396 47.7146 510.194 47.1808C511.992 46.6471 513.927 46.8222 515.6 47.6701C516.41 48.0808 517.127 48.6525 517.708 49.3502C518.289 50.0478 518.722 50.8568 518.979 51.7275C519.237 52.5982 519.314 53.5121 519.206 54.4136C519.097 55.3151 518.806 56.185 518.35 56.97C517.41 58.5935 515.885 59.7955 514.086 60.3293C512.288 60.863 510.353 60.6879 508.68 59.84ZM581.68 97.6301C580.87 97.2194 580.153 96.6477 579.572 95.95C578.991 95.2523 578.558 94.4434 578.301 93.5727C578.043 92.702 577.966 91.788 578.074 90.8865C578.183 89.9851 578.474 89.1152 578.93 88.3301C579.868 86.7049 581.394 85.5012 583.193 84.9672C584.992 84.4333 586.927 84.6098 588.6 85.4601C589.41 85.8708 590.127 86.4424 590.708 87.1401C591.289 87.8377 591.722 88.6467 591.979 89.5174C592.237 90.3881 592.314 91.3022 592.206 92.2037C592.097 93.1052 591.806 93.975 591.35 94.7601C590.41 96.3886 588.881 97.5943 587.078 98.1284C585.275 98.6624 583.335 98.484 581.66 97.6301H581.68Z" fill="#8DA500"/>
<path fill-rule="evenodd" clip-rule="evenodd" d="M432.83 20.17C436.797 22.1847 441.384 22.6026 445.65 21.3377C449.915 20.0728 453.533 17.2214 455.76 13.37C456.833 11.5105 457.516 9.45232 457.767 7.32052C458.019 5.18872 457.834 3.02794 457.224 0.96981C456.614 -1.08832 455.592 -3.00078 454.219 -4.65116C452.847 -6.30154 451.152 -7.65532 449.24 -8.63004C445.86 -10.3426 442.013 -10.9068 438.283 -10.2373C434.554 -9.5679 431.144 -7.70119 428.57 -4.91996L384.27 -27.86C385.317 -31.4009 385.09 -35.1968 383.628 -38.5877C382.167 -41.9786 379.563 -44.7499 376.27 -46.42C372.303 -48.4322 367.716 -48.8488 363.451 -47.5841C359.187 -46.3195 355.569 -43.4696 353.34 -39.62C352.267 -37.7606 351.584 -35.7023 351.333 -33.5705C351.081 -31.4387 351.266 -29.278 351.876 -27.2199C352.485 -25.1618 353.508 -23.2493 354.881 -21.5989C356.253 -19.9485 357.947 -18.5948 359.86 -17.62C363.039 -16.0081 366.635 -15.4094 370.165 -15.9047C373.695 -16.4 376.987 -17.9655 379.6 -20.3901L424.52 2.86996C423.815 6.26703 424.248 9.80176 425.751 12.9284C427.255 16.0551 429.746 18.5999 432.84 20.17H432.83ZM364.6 -25.96C363.79 -26.3707 363.073 -26.9424 362.492 -27.6401C361.911 -28.3377 361.478 -29.1467 361.221 -30.0174C360.963 -30.8881 360.886 -31.8022 360.994 -32.7037C361.103 -33.6051 361.394 -34.475 361.85 -35.26C362.79 -36.8835 364.315 -38.0854 366.114 -38.6192C367.912 -39.1529 369.847 -38.9779 371.52 -38.13C372.33 -37.7194 373.047 -37.1477 373.628 -36.45C374.209 -35.7523 374.642 -34.9434 374.899 -34.0727C375.157 -33.202 375.234 -32.2879 375.126 -31.3864C375.017 -30.4849 374.726 -29.615 374.27 -28.83C373.33 -27.2065 371.804 -26.0046 370.006 -25.4709C368.208 -24.9371 366.273 -25.1121 364.6 -25.96ZM437.6 11.83C436.79 11.4194 436.073 10.8477 435.492 10.15C434.911 9.45232 434.478 8.64335 434.221 7.77267C433.963 6.90198 433.886 5.98787 433.994 5.08639C434.103 4.1849 434.394 3.31502 434.85 2.52999C435.788 0.907261 437.312 -0.294488 439.109 -0.828285C440.905 -1.36208 442.838 -1.18737 444.51 -0.340004C445.321 0.0697829 446.039 0.640829 446.621 1.3381C447.203 2.03536 447.637 2.84416 447.895 3.71493C448.153 4.58569 448.231 5.50002 448.124 6.40194C448.016 7.30386 447.726 8.17441 447.27 8.96004C446.33 10.5886 444.8 11.7942 442.997 12.3282C441.194 12.8622 439.255 12.684 437.58 11.83H437.6Z" fill="#8DA500"/>
<path fill-rule="evenodd" clip-rule="evenodd" d="M602.05 73.0899C609.16 76.7699 620.44 74.25 624.97 66.29C626.018 64.4206 626.681 62.3603 626.92 60.2305C627.159 58.1008 626.969 55.9447 626.362 53.8895C625.754 51.8343 624.741 49.9217 623.382 48.2644C622.023 46.6071 620.346 45.2387 618.45 44.2399C614.865 42.3525 610.726 41.8001 606.772 42.6811C602.818 43.5621 599.305 45.8193 596.86 49.05L521.7 10.13L520.08 9.29L518.29 9.82002L438.57 33.9899L397.44 12.69C399.28 5.69002 396.78 -1.53007 389.3 -5.40007C381.82 -9.27007 370.9 -6.56002 366.37 1.39998C361.84 9.35998 365.47 19.6 372.89 23.4C376.117 25.1642 379.835 25.8148 383.47 25.2507C387.104 24.6866 390.45 22.9394 392.99 20.28L435.83 42.46L437.45 43.3L439.24 42.77L518.95 18.5999L593.49 57.2C592.79 63.54 594.93 69.35 602.05 73.04V73.0899ZM377.64 15.0899C376.83 14.6792 376.113 14.1077 375.532 13.41C374.951 12.7123 374.518 11.9034 374.261 11.0327C374.003 10.162 373.926 9.24788 374.035 8.34639C374.143 7.44491 374.434 6.57502 374.89 5.79C375.83 4.16654 377.356 2.96448 379.154 2.43074C380.952 1.89701 382.887 2.07211 384.56 2.92C385.37 3.33068 386.087 3.90239 386.668 4.60005C387.249 5.29772 387.682 6.10669 387.939 6.97737C388.197 7.84806 388.274 8.76205 388.166 9.66353C388.057 10.565 387.766 11.4349 387.31 12.2199C386.372 13.8452 384.846 15.0489 383.047 15.5828C381.248 16.1168 379.313 15.9403 377.64 15.0899V15.0899ZM606.79 64.7299C605.98 64.3193 605.263 63.7477 604.682 63.05C604.101 62.3523 603.668 61.5434 603.411 60.6727C603.153 59.802 603.076 58.8879 603.184 57.9864C603.293 57.0849 603.584 56.215 604.04 55.43C604.98 53.8066 606.506 52.6045 608.304 52.0708C610.102 51.537 612.037 51.7121 613.71 52.56C614.52 52.9707 615.237 53.5424 615.818 54.2401C616.399 54.9377 616.832 55.7466 617.089 56.6173C617.347 57.488 617.424 58.4021 617.316 59.3035C617.207 60.205 616.916 61.0749 616.46 61.8599C615.524 63.4869 613.999 64.6931 612.201 65.2307C610.402 65.7682 608.466 65.5962 606.79 64.75V64.7299Z" fill="#8DA500"/>
<path fill-rule="evenodd" clip-rule="evenodd" d="M652.69 221.13C656.623 223.208 659.61 226.714 661.038 230.926C662.467 235.139 662.227 239.738 660.37 243.78C659.472 245.736 658.185 247.488 656.588 248.93C654.99 250.371 653.115 251.472 651.077 252.165C649.04 252.857 646.883 253.127 644.737 252.958C642.592 252.789 640.504 252.184 638.6 251.18C635.032 249.292 632.23 246.223 630.673 242.499C629.115 238.775 628.899 234.626 630.06 230.76L554.91 191.84L553.28 191L552.69 189.23L544.48 165.04L471.11 127.04C468.787 129.799 465.589 131.68 462.049 132.37C458.508 133.059 454.839 132.516 451.65 130.83C447.717 128.752 444.73 125.246 443.302 121.034C441.873 116.821 442.112 112.222 443.97 108.18C444.867 106.224 446.155 104.472 447.752 103.03C449.35 101.589 451.226 100.488 453.263 99.7967C455.301 99.105 457.459 98.8361 459.604 99.0069C461.749 99.1777 463.837 99.7844 465.74 100.79C468.956 102.503 471.554 105.181 473.169 108.447C474.783 111.714 475.333 115.405 474.74 119L549.81 157.87L551.43 158.71L552.03 160.48L560.23 184.67L634.77 223.27C637.176 221.137 640.176 219.788 643.369 219.404C646.562 219.019 649.796 219.618 652.64 221.12L652.69 221.13ZM461.69 109.48C460.887 109.057 460.007 108.803 459.102 108.732C458.198 108.661 457.288 108.775 456.429 109.066C455.57 109.358 454.78 109.822 454.106 110.43C453.432 111.037 452.889 111.776 452.51 112.6C451.727 114.306 451.627 116.246 452.229 118.024C452.832 119.802 454.091 121.281 455.75 122.16C456.553 122.582 457.434 122.836 458.339 122.907C459.244 122.977 460.154 122.862 461.013 122.569C461.872 122.276 462.663 121.811 463.336 121.203C464.009 120.594 464.552 119.855 464.93 119.03C465.712 117.325 465.812 115.386 465.21 113.61C464.607 111.834 463.348 110.356 461.69 109.48V109.48ZM648.69 229.82C647.887 229.396 647.005 229.14 646.1 229.068C645.194 228.996 644.283 229.109 643.423 229.401C642.563 229.693 641.772 230.158 641.097 230.766C640.422 231.375 639.879 232.114 639.5 232.94C638.72 234.645 638.622 236.583 639.224 238.358C639.826 240.133 641.084 241.611 642.74 242.49C643.542 242.914 644.423 243.17 645.328 243.241C646.233 243.313 647.143 243.2 648.002 242.908C648.862 242.615 649.652 242.151 650.326 241.543C651 240.934 651.542 240.195 651.92 239.37C652.703 237.659 652.796 235.712 652.182 233.934C651.567 232.156 650.292 230.683 648.62 229.82H648.69Z" fill="#8DA500"/>
<path fill-rule="evenodd" clip-rule="evenodd" d="M510.73 203.9C514.662 205.976 517.649 209.48 519.077 213.691C520.506 217.902 520.267 222.5 518.41 226.54C517.513 228.497 516.227 230.25 514.629 231.693C513.032 233.135 511.157 234.236 509.119 234.929C507.081 235.622 504.923 235.892 502.777 235.721C500.632 235.551 498.543 234.945 496.64 233.94C493.292 232.172 490.612 229.36 489.006 225.931C487.4 222.503 486.956 218.644 487.74 214.94L443.43 192C441.143 194.898 437.912 196.902 434.3 197.664C430.688 198.426 426.923 197.897 423.66 196.17C419.727 194.092 416.74 190.586 415.312 186.374C413.883 182.161 414.122 177.562 415.98 173.52C416.878 171.564 418.165 169.812 419.762 168.37C421.36 166.929 423.235 165.828 425.273 165.135C427.31 164.443 429.467 164.173 431.613 164.342C433.758 164.511 435.846 165.116 437.75 166.12C440.9 167.786 443.463 170.378 445.094 173.547C446.725 176.716 447.345 180.308 446.87 183.84L491.8 207.1C494.167 204.562 497.304 202.876 500.726 202.301C504.148 201.726 507.664 202.295 510.73 203.92V203.9ZM433.73 174.79C432.927 174.364 432.045 174.107 431.14 174.035C430.234 173.962 429.322 174.075 428.462 174.367C427.601 174.659 426.809 175.124 426.135 175.734C425.461 176.343 424.918 177.084 424.54 177.91C423.755 179.614 423.654 181.554 424.257 183.331C424.859 185.107 426.12 186.585 427.78 187.46C428.582 187.884 429.463 188.14 430.368 188.212C431.273 188.283 432.183 188.17 433.042 187.878C433.902 187.586 434.692 187.121 435.366 186.513C436.04 185.905 436.582 185.165 436.96 184.34C437.743 182.637 437.844 180.698 437.244 178.923C436.643 177.147 435.386 175.668 433.73 174.79V174.79ZM506.73 212.58C505.927 212.156 505.047 211.9 504.142 211.829C503.237 211.757 502.327 211.87 501.468 212.162C500.608 212.454 499.818 212.919 499.144 213.527C498.47 214.135 497.928 214.875 497.55 215.7C496.767 217.406 496.667 219.347 497.269 221.124C497.872 222.902 499.131 224.381 500.79 225.26C501.593 225.682 502.475 225.936 503.379 226.007C504.284 226.077 505.194 225.962 506.053 225.669C506.912 225.377 507.703 224.912 508.376 224.303C509.049 223.695 509.592 222.955 509.97 222.13C510.74 220.418 510.825 218.477 510.208 216.704C509.59 214.931 508.317 213.463 506.65 212.6L506.73 212.58Z" fill="#8DA500"/>
<path fill-rule="evenodd" clip-rule="evenodd" d="M660.01 315.9C667.12 319.58 671.58 330.25 667.69 338.55C666.766 340.483 665.465 342.212 663.863 343.634C662.261 345.057 660.391 346.144 658.362 346.833C656.334 347.521 654.188 347.797 652.051 347.644C649.914 347.491 647.83 346.912 645.92 345.94C642.31 344.102 639.47 341.04 637.907 337.302C636.345 333.563 636.162 329.391 637.39 325.53L562.28 286.64L560.66 285.8L560.06 284.03L527.06 201.5L485.92 180.2C483.597 182.96 480.399 184.841 476.859 185.53C473.319 186.22 469.649 185.676 466.46 183.99C462.527 181.912 459.54 178.407 458.112 174.194C456.683 169.982 456.923 165.382 458.78 161.34C459.678 159.384 460.965 157.632 462.562 156.191C464.16 154.749 466.035 153.648 468.073 152.956C470.11 152.263 472.267 151.993 474.413 152.162C476.558 152.332 478.646 152.937 480.55 153.94C483.766 155.656 486.364 158.336 487.978 161.604C489.592 164.872 490.142 168.564 489.55 172.16L532.39 194.34L534.01 195.18L534.61 196.95L567.61 279.48L642.15 318.08C646.92 313.85 652.91 312.24 660.02 315.93L660.01 315.9ZM476.42 162.6C475.617 162.176 474.737 161.921 473.832 161.849C472.927 161.777 472.017 161.891 471.158 162.183C470.298 162.475 469.508 162.939 468.834 163.547C468.16 164.156 467.618 164.895 467.24 165.72C466.455 167.424 466.354 169.365 466.957 171.141C467.559 172.918 468.82 174.396 470.48 175.27C471.283 175.694 472.163 175.95 473.068 176.022C473.973 176.094 474.883 175.98 475.742 175.688C476.602 175.396 477.392 174.932 478.066 174.323C478.74 173.715 479.282 172.976 479.66 172.15C480.442 170.446 480.542 168.507 479.94 166.731C479.337 164.955 478.078 163.477 476.42 162.6V162.6ZM655.94 324.6C655.137 324.178 654.255 323.924 653.351 323.854C652.446 323.783 651.536 323.898 650.677 324.191C649.818 324.484 649.027 324.949 648.354 325.557C647.681 326.166 647.138 326.905 646.76 327.73C645.977 329.434 645.875 331.372 646.476 333.148C647.077 334.923 648.334 336.402 649.99 337.28C650.793 337.705 651.675 337.96 652.58 338.032C653.486 338.104 654.397 337.991 655.257 337.699C656.117 337.407 656.908 336.942 657.583 336.334C658.258 335.726 658.801 334.986 659.18 334.16C659.96 332.456 660.058 330.517 659.456 328.742C658.854 326.967 657.596 325.489 655.94 324.61V324.6Z" fill="#8DA500"/>
<path fill-rule="evenodd" clip-rule="evenodd" d="M390.87 90.1999C394.801 92.2801 397.787 95.7856 399.215 99.9974C400.643 104.209 400.405 108.808 398.55 112.85C397.653 114.807 396.367 116.56 394.769 118.003C393.172 119.445 391.297 120.546 389.259 121.239C387.221 121.932 385.063 122.201 382.917 122.031C380.772 121.861 378.683 121.255 376.78 120.25C373.211 118.363 370.408 115.295 368.85 111.571C367.292 107.846 367.077 103.696 368.24 99.8299L293.08 60.8999L291.46 60.0599L290.86 58.2999L282.66 34.0998L209.29 -3.90018C206.966 -1.13844 203.767 0.744077 200.224 1.43368C196.682 2.12329 193.01 1.57839 189.82 -0.110142C185.888 -2.18648 182.902 -5.69079 181.475 -9.90213C180.048 -14.1135 180.29 -18.7115 182.15 -22.7502C183.045 -24.7067 184.331 -26.4597 185.928 -27.9021C187.524 -29.3445 189.398 -30.4458 191.435 -31.1386C193.473 -31.8314 195.63 -32.101 197.775 -31.9311C199.92 -31.7611 202.007 -31.1551 203.91 -30.1502C207.137 -28.4464 209.748 -25.772 211.374 -22.5047C212.999 -19.2373 213.558 -15.5419 212.97 -11.9401L288.03 26.9399L289.66 27.7699L290.25 29.5399L298.46 53.7398L373 92.3299C375.406 90.1966 378.406 88.8479 381.599 88.4637C384.792 88.0796 388.026 88.6783 390.87 90.1799V90.1999ZM199.87 -21.4501C199.066 -21.8723 198.185 -22.1264 197.281 -22.1968C196.376 -22.2672 195.466 -22.1524 194.607 -21.8595C193.748 -21.5666 192.957 -21.1017 192.284 -20.4932C191.61 -19.8847 191.068 -19.1452 190.69 -18.3201C189.908 -16.6157 189.808 -14.6766 190.41 -12.9007C191.013 -11.1248 192.272 -9.64681 193.93 -8.77018C194.733 -8.34617 195.613 -8.09041 196.518 -8.01859C197.423 -7.94676 198.333 -8.06037 199.192 -8.35245C200.051 -8.64453 200.842 -9.10889 201.516 -9.7172C202.19 -10.3255 202.732 -11.0649 203.11 -11.8902C203.893 -13.5961 203.993 -15.5367 203.391 -17.3142C202.788 -19.0918 201.528 -20.5716 199.87 -21.4501V-21.4501ZM386.87 98.8899C386.067 98.4659 385.187 98.2101 384.282 98.1383C383.377 98.0664 382.467 98.1801 381.608 98.4721C380.748 98.7642 379.958 99.2287 379.284 99.837C378.61 100.445 378.068 101.185 377.69 102.01C376.905 103.714 376.804 105.654 377.407 107.431C378.009 109.207 379.27 110.685 380.93 111.56C381.733 111.984 382.613 112.24 383.518 112.311C384.423 112.383 385.333 112.27 386.192 111.978C387.051 111.686 387.842 111.221 388.516 110.613C389.19 110.004 389.732 109.265 390.11 108.44C390.885 106.727 390.973 104.782 390.356 103.007C389.738 101.231 388.461 99.7609 386.79 98.8999L386.87 98.8899Z" fill="#8DA500"/>
<path fill-rule="evenodd" clip-rule="evenodd" d="M402.12 141.15C406.053 143.228 409.04 146.734 410.468 150.947C411.897 155.159 411.657 159.759 409.8 163.8C408.903 165.756 407.615 167.508 406.018 168.95C404.42 170.391 402.544 171.492 400.506 172.183C398.469 172.875 396.311 173.144 394.166 172.973C392.021 172.802 389.933 172.196 388.03 171.19C384.685 169.419 382.007 166.607 380.401 163.179C378.795 159.751 378.349 155.894 379.13 152.19L334.83 129.25C332.541 132.149 329.309 134.153 325.695 134.915C322.081 135.677 318.314 135.148 315.05 133.42C311.118 131.344 308.131 127.839 306.705 123.628C305.278 119.417 305.52 114.819 307.38 110.78C308.275 108.824 309.561 107.07 311.158 105.628C312.754 104.186 314.628 103.084 316.666 102.392C318.703 101.699 320.86 101.429 323.005 101.599C325.15 101.769 327.237 102.375 329.14 103.38C332.291 105.043 334.856 107.633 336.489 110.8C338.122 113.967 338.743 117.559 338.27 121.09L383.2 144.35C385.567 141.816 388.702 140.132 392.122 139.557C395.541 138.982 399.055 139.549 402.12 141.17V141.15ZM325.12 112.04C324.317 111.616 323.437 111.36 322.532 111.289C321.627 111.217 320.717 111.33 319.858 111.622C318.998 111.914 318.208 112.379 317.534 112.987C316.86 113.595 316.318 114.335 315.94 115.16C315.157 116.866 315.057 118.807 315.659 120.584C316.262 122.362 317.521 123.842 319.18 124.72C319.983 125.144 320.863 125.4 321.768 125.472C322.673 125.543 323.583 125.43 324.442 125.138C325.301 124.846 326.092 124.381 326.766 123.773C327.44 123.165 327.982 122.425 328.36 121.6C329.145 119.895 329.247 117.953 328.644 116.175C328.041 114.397 326.78 112.917 325.12 112.04V112.04ZM398.12 149.83C397.317 149.406 396.436 149.151 395.53 149.08C394.625 149.009 393.715 149.123 392.855 149.416C391.996 149.71 391.205 150.175 390.532 150.784C389.859 151.394 389.317 152.134 388.94 152.96C388.158 154.665 388.058 156.604 388.66 158.38C389.263 160.156 390.522 161.633 392.18 162.51C392.983 162.934 393.863 163.19 394.768 163.262C395.673 163.334 396.583 163.22 397.442 162.928C398.301 162.636 399.092 162.171 399.766 161.563C400.44 160.955 400.982 160.215 401.36 159.39C402.137 157.676 402.227 155.729 401.611 153.95C400.996 152.171 399.721 150.697 398.05 149.83H398.12Z" fill="#8DA500"/>
<path fill-rule="evenodd" clip-rule="evenodd" d="M165.14 113.18C172.49 116.98 176.71 127.53 172.82 135.83C171.879 137.748 170.569 139.462 168.965 140.872C167.361 142.283 165.494 143.363 163.471 144.05C161.449 144.738 159.31 145.019 157.179 144.879C155.047 144.738 152.965 144.178 151.05 143.23C147.639 141.534 144.903 138.732 143.287 135.282C141.671 131.832 141.27 127.937 142.15 124.23L97.85 101.29C95.6252 104.273 92.3896 106.343 88.7487 107.113C85.1079 107.882 81.3113 107.298 78.0699 105.47C70.5199 101.55 66.4999 91.1105 70.3899 82.8205C74.2799 74.5305 84.81 71.6104 92.16 75.4204C99.51 79.2304 102.28 86.0604 101.28 93.1004L146.2 116.37C150.94 111.29 157.78 109.37 165.13 113.18H165.14ZM88.1399 84.0805C87.3374 83.6565 86.4568 83.4007 85.5519 83.3289C84.6471 83.2571 83.7372 83.3707 82.8778 83.6628C82.0184 83.9548 81.2277 84.4192 80.554 85.0275C79.8803 85.6358 79.3379 86.3752 78.96 87.2005C78.1778 88.9049 78.0777 90.844 78.6802 92.6199C79.2827 94.3958 80.5421 95.8738 82.1999 96.7504C83.0028 97.1729 83.8833 97.4275 84.7878 97.4986C85.6922 97.5696 86.6017 97.4558 87.4607 97.1639C88.3197 96.8719 89.1102 96.4081 89.784 95.8006C90.4578 95.1931 91.0008 94.4546 91.3799 93.6304C92.1646 91.9263 92.266 89.9863 91.6633 88.2098C91.0605 86.4332 89.7995 84.9553 88.1399 84.0805V84.0805ZM161.14 121.87C160.337 121.446 159.457 121.191 158.552 121.119C157.647 121.047 156.737 121.161 155.878 121.453C155.018 121.745 154.228 122.209 153.554 122.818C152.88 123.426 152.338 124.165 151.96 124.99C151.175 126.693 151.072 128.632 151.673 130.409C152.273 132.185 153.532 133.664 155.19 134.54C155.994 134.963 156.875 135.218 157.78 135.289C158.685 135.36 159.595 135.246 160.455 134.955C161.315 134.663 162.106 134.199 162.781 133.591C163.456 132.984 164 132.245 164.38 131.42C165.15 129.711 165.236 127.772 164.621 126.001C164.005 124.231 162.734 122.763 161.07 121.9L161.14 121.87Z" fill="#8DA500"/>
<path fill-rule="evenodd" clip-rule="evenodd" d="M429.28 207.48C436.4 211.16 440.85 221.83 436.96 230.13C436.035 232.062 434.733 233.79 433.131 235.212C431.53 236.634 429.66 237.721 427.632 238.411C425.604 239.1 423.459 239.377 421.322 239.226C419.185 239.075 417.101 238.498 415.19 237.53C411.579 235.69 408.739 232.626 407.176 228.886C405.614 225.146 405.431 220.973 406.66 217.11L307.94 165.99L306.32 165.15L305.72 163.38L261.72 81.5404L220.59 60.2404C215.9 65.8004 208.59 67.9004 201.12 64.0304C193.65 60.1604 189.55 49.6804 193.44 41.3804C197.33 33.0804 207.78 30.1403 215.21 33.9803C222.64 37.8203 225.44 44.9804 224.26 52.2004L267.1 74.3804L268.72 75.2203L269.32 76.9904L313.32 158.83L411.42 209.63C416.19 205.4 422.18 203.79 429.29 207.48H429.28ZM211.1 42.6704C210.297 42.2464 209.417 41.9907 208.512 41.9188C207.607 41.847 206.697 41.9606 205.838 42.2527C204.978 42.5448 204.188 43.0091 203.514 43.6174C202.84 44.2257 202.298 44.9652 201.92 45.7904C201.135 47.4945 201.034 49.4345 201.637 51.2111C202.239 52.9876 203.5 54.4655 205.16 55.3403C205.963 55.7643 206.843 56.0201 207.748 56.0919C208.653 56.1637 209.563 56.0501 210.422 55.7581C211.282 55.466 212.072 55.0016 212.746 54.3933C213.42 53.785 213.962 53.0456 214.34 52.2203C215.122 50.5159 215.222 48.5768 214.62 46.8009C214.017 45.025 212.758 43.547 211.1 42.6704V42.6704ZM425.21 216.17C424.407 215.746 423.527 215.491 422.622 215.419C421.717 215.347 420.807 215.461 419.948 215.753C419.088 216.045 418.298 216.509 417.624 217.117C416.95 217.726 416.408 218.465 416.03 219.29C415.248 220.995 415.148 222.934 415.75 224.71C416.353 226.486 417.612 227.964 419.27 228.84C420.073 229.263 420.953 229.518 421.858 229.589C422.762 229.66 423.672 229.546 424.531 229.254C425.39 228.962 426.18 228.498 426.854 227.891C427.528 227.283 428.071 226.545 428.45 225.72C429.231 224.01 429.325 222.066 428.712 220.288C428.1 218.511 426.828 217.037 425.16 216.17H425.21Z" fill="#8DA500"/>
<path fill-rule="evenodd" clip-rule="evenodd" d="M375.63 233.97C382.75 237.66 387.2 248.32 383.31 256.62C382.387 258.553 381.087 260.281 379.486 261.704C377.885 263.126 376.016 264.214 373.989 264.904C371.961 265.593 369.816 265.871 367.68 265.719C365.544 265.567 363.46 264.99 361.55 264.02C357.935 262.183 355.092 259.12 353.528 255.38C351.963 251.639 351.78 247.464 353.01 243.6L293.56 212.82L291.94 211.98L291.34 210.21L263.09 151.44L223.77 131.08C219.09 136.65 211.77 138.75 204.31 134.88C196.85 131.01 192.74 120.53 196.63 112.23C200.52 103.93 210.97 100.98 218.4 104.83C225.83 108.68 228.63 115.83 227.45 123.05L268.45 144.28L270.07 145.12L270.67 146.89L298.92 205.66L357.76 236.12C362.52 231.89 368.51 230.29 375.62 233.97H375.63ZM214.28 113.52C213.477 113.096 212.597 112.841 211.692 112.769C210.787 112.697 209.877 112.811 209.018 113.103C208.158 113.395 207.368 113.859 206.694 114.467C206.02 115.076 205.478 115.815 205.1 116.64C204.318 118.345 204.218 120.284 204.82 122.06C205.423 123.836 206.682 125.314 208.34 126.19C209.142 126.614 210.023 126.87 210.928 126.942C211.833 127.014 212.743 126.9 213.602 126.608C214.461 126.316 215.252 125.852 215.926 125.243C216.6 124.635 217.142 123.896 217.52 123.07C218.305 121.366 218.406 119.426 217.803 117.65C217.2 115.873 215.939 114.395 214.28 113.52V113.52ZM371.52 242.66C370.717 242.236 369.837 241.981 368.932 241.909C368.027 241.837 367.117 241.951 366.258 242.243C365.398 242.535 364.608 242.999 363.934 243.607C363.26 244.216 362.718 244.955 362.34 245.78C361.555 247.485 361.454 249.425 362.057 251.201C362.659 252.978 363.92 254.456 365.58 255.33C366.382 255.754 367.263 256.01 368.168 256.082C369.073 256.154 369.983 256.04 370.842 255.748C371.701 255.456 372.492 254.992 373.166 254.383C373.84 253.775 374.382 253.036 374.76 252.21C375.548 250.511 375.655 248.575 375.06 246.799C374.465 245.023 373.212 243.542 371.56 242.66H371.52Z" fill="#8DA500"/>
<path fill-rule="evenodd" clip-rule="evenodd" d="M664.16 83.3003C668.127 85.3125 672.714 85.7292 676.979 84.4645C681.243 83.1998 684.862 80.3498 687.09 76.5002C688.163 74.6408 688.846 72.5826 689.097 70.4508C689.349 68.319 689.164 66.1582 688.555 64.1001C687.945 62.042 686.922 60.1295 685.549 58.4791C684.177 56.8287 682.483 55.475 680.57 54.5002C677.19 52.7877 673.343 52.2234 669.614 52.8928C665.884 53.5623 662.474 55.4291 659.9 58.2103C657.72 61.3003 657.53 61.2103 655.84 66.0503C655.135 69.4474 655.568 72.982 657.072 76.1086C658.575 79.2353 661.066 81.7801 664.16 83.3502V83.3003ZM668.9 74.9603C668.091 74.5486 667.375 73.9762 666.795 73.2784C666.214 72.5806 665.783 71.7719 665.525 70.9016C665.268 70.0313 665.19 69.1177 665.298 68.2165C665.405 67.3154 665.695 66.4457 666.15 65.6603C667.09 64.0368 668.616 62.8348 670.414 62.301C672.212 61.7673 674.147 61.9424 675.82 62.7903C676.63 63.201 677.347 63.7727 677.928 64.4703C678.509 65.168 678.942 65.977 679.199 66.8477C679.457 67.7183 679.534 68.6323 679.426 69.5338C679.317 70.4353 679.026 71.3052 678.57 72.0902C677.63 73.7137 676.105 74.9157 674.306 75.4495C672.508 75.9832 670.573 75.8082 668.9 74.9603V74.9603Z" fill="#8DA500"/>
</svg>
