<svg width="95" height="61" viewBox="0 0 95 61" fill="none" xmlns="http://www.w3.org/2000/svg">
<path d="M28.7843 10.9132C28.1886 10.9012 27.6028 11.0673 27.1017 11.3902C26.6005 11.713 26.2067 12.1781 25.9704 12.7261C25.7342 13.2741 25.6661 13.8801 25.775 14.467C25.8839 15.0539 26.1648 15.595 26.5818 16.0213C26.9989 16.4476 27.5332 16.7399 28.1167 16.8608C28.7002 16.9817 29.3064 16.9258 29.858 16.7002C30.4097 16.4746 30.8818 16.0896 31.2141 15.5942C31.5465 15.0987 31.7241 14.5154 31.7242 13.9184C31.7243 13.1317 31.4165 12.3763 30.8669 11.8144C30.3172 11.2524 29.5695 10.9289 28.7843 10.9132ZM28.7843 21.7422C28.1886 21.7302 27.6028 21.8963 27.1017 22.2192C26.6005 22.5421 26.2067 23.0071 25.9704 23.5551C25.7342 24.1031 25.6661 24.7092 25.775 25.296C25.8839 25.8829 26.1648 26.424 26.5818 26.8503C26.9989 27.2767 27.5332 27.5689 28.1167 27.6898C28.7002 27.8107 29.3064 27.7548 29.858 27.5292C30.4097 27.3037 30.8818 26.9186 31.2141 26.4232C31.5465 25.9277 31.7241 25.3444 31.7242 24.7474C31.7308 24.356 31.6597 23.9672 31.5151 23.6035C31.3704 23.2398 31.1551 22.9085 30.8816 22.6289C30.608 22.3493 30.2818 22.1269 29.9218 21.9747C29.5618 21.8225 29.1751 21.7434 28.7843 21.7422ZM28.7843 43.4002C28.1886 43.3883 27.6028 43.5543 27.1017 43.8772C26.6005 44.2001 26.2067 44.6652 25.9704 45.2132C25.7342 45.7611 25.6661 46.3672 25.775 46.9541C25.8839 47.5409 26.1648 48.082 26.5818 48.5084C26.9989 48.9347 27.5332 49.2269 28.1167 49.3479C28.7002 49.4688 29.3064 49.4129 29.858 49.1873C30.4097 48.9617 30.8818 48.5766 31.2141 48.0812C31.5465 47.5858 31.7241 47.0024 31.7242 46.4055C31.7308 46.014 31.6597 45.6252 31.5151 45.2615C31.3704 44.8978 31.1551 44.5666 30.8816 44.287C30.608 44.0074 30.2818 43.785 29.9218 43.6327C29.5618 43.4805 29.1751 43.4015 28.7843 43.4002ZM28.7843 32.5712C28.1886 32.5593 27.6028 32.7253 27.1017 33.0482C26.6005 33.3711 26.2067 33.8362 25.9704 34.3841C25.7342 34.9321 25.6661 35.5382 25.775 36.1251C25.8839 36.7119 26.1648 37.253 26.5818 37.6793C26.9989 38.1057 27.5332 38.3979 28.1167 38.5188C28.7002 38.6398 29.3064 38.5839 29.858 38.3583C30.4097 38.1327 30.8818 37.7476 31.2141 37.2522C31.5465 36.7568 31.7241 36.1734 31.7242 35.5765C31.7308 35.185 31.6597 34.7962 31.5151 34.4325C31.3704 34.0688 31.1551 33.7375 30.8816 33.4579C30.608 33.1783 30.2818 32.956 29.9218 32.8037C29.5618 32.6515 29.1751 32.5725 28.7843 32.5712ZM28.7843 54.2192C28.1886 54.2073 27.6028 54.3733 27.1017 54.6962C26.6005 55.0191 26.2067 55.4842 25.9704 56.0322C25.7342 56.5801 25.6661 57.1862 25.775 57.7731C25.8839 58.3599 26.1648 58.901 26.5818 59.3274C26.9989 59.7537 27.5332 60.0459 28.1167 60.1669C28.7002 60.2878 29.3064 60.2319 29.858 60.0063C30.4097 59.7807 30.8818 59.3956 31.2141 58.9002C31.5465 58.4048 31.7241 57.8214 31.7242 57.2245C31.7269 56.436 31.4203 55.678 30.8704 55.114C30.3204 54.5499 29.5712 54.225 28.7843 54.2092V54.2192ZM28.7843 0.124213C28.1886 0.112275 27.6028 0.278333 27.1017 0.601216C26.6005 0.924099 26.2067 1.38917 25.9704 1.93716C25.7342 2.48514 25.6661 3.09121 25.775 3.67808C25.8839 4.26495 26.1648 4.80604 26.5818 5.23237C26.9989 5.6587 27.5332 5.95095 28.1167 6.07186C28.7002 6.19277 29.3064 6.13687 29.858 5.91128C30.4097 5.6857 30.8818 5.30064 31.2141 4.80521C31.5465 4.30978 31.7241 3.72641 31.7242 3.12949C31.7321 2.73722 31.6621 2.34729 31.518 1.98244C31.374 1.61759 31.1588 1.28514 30.8852 1.00446C30.6115 0.723782 30.2848 0.500509 29.9241 0.347658C29.5634 0.194808 29.176 0.115442 28.7843 0.114193V0.124213ZM41.2336 32.5712C40.6379 32.5593 40.0521 32.7253 39.551 33.0482C39.0498 33.3711 38.656 33.8362 38.4197 34.3841C38.1835 34.9321 38.1154 35.5382 38.2243 36.1251C38.3332 36.7119 38.6141 37.253 39.0311 37.6793C39.4482 38.1057 39.9825 38.3979 40.566 38.5188C41.1495 38.6398 41.7557 38.5839 42.3073 38.3583C42.859 38.1327 43.3311 37.7476 43.6634 37.2522C43.9958 36.7568 44.1733 36.1734 44.1735 35.5765C44.1736 34.7897 43.8658 34.0343 43.3162 33.4724C42.7665 32.9105 42.0188 32.5869 41.2336 32.5712ZM16.345 0.114193C15.7493 0.102255 15.1635 0.268314 14.6624 0.591197C14.1613 0.91408 13.7675 1.37916 13.5312 1.92715C13.2949 2.47513 13.2268 3.08119 13.3357 3.66806C13.4446 4.25493 13.7255 4.79602 14.1425 5.22235C14.5596 5.64868 15.0939 5.94093 15.6774 6.06185C16.2609 6.18276 16.8671 6.12686 17.4187 5.90127C17.9704 5.67568 18.4425 5.29062 18.7748 4.79519C19.1072 4.29976 19.2848 3.71639 19.2849 3.11947C19.285 2.33273 18.9772 1.57729 18.4276 1.01539C17.8779 0.453486 17.1302 0.129928 16.345 0.114193ZM41.2336 21.7622C40.6379 21.7503 40.0521 21.9163 39.551 22.2392C39.0498 22.5621 38.656 23.0272 38.4197 23.5752C38.1835 24.1231 38.1154 24.7292 38.2243 25.3161C38.3332 25.9029 38.6141 26.444 39.0311 26.8704C39.4482 27.2967 39.9825 27.5889 40.566 27.7099C41.1495 27.8308 41.7557 27.7749 42.3073 27.5493C42.859 27.3237 43.3311 26.9386 43.6634 26.4432C43.9958 25.9478 44.1733 25.3644 44.1735 24.7675C44.1789 23.9773 43.8734 23.2167 43.3232 22.6505C42.773 22.0843 42.0223 21.758 41.2336 21.7422V21.7622ZM41.2336 54.2392C40.6379 54.2273 40.0521 54.3934 39.551 54.7162C39.0498 55.0391 38.656 55.5042 38.4197 56.0522C38.1835 56.6002 38.1154 57.2062 38.2243 57.7931C38.3332 58.38 38.6141 58.9211 39.0311 59.3474C39.4482 59.7737 39.9825 60.066 40.566 60.1869C41.1495 60.3078 41.7557 60.2519 42.3073 60.0263C42.859 59.8007 43.3311 59.4157 43.6634 58.9202C43.9958 58.4248 44.1733 57.8414 44.1735 57.2445C44.1815 56.4526 43.8772 55.6895 43.3267 55.1211C42.7762 54.5527 42.024 54.225 41.2336 54.2092V54.2392ZM41.2336 43.4202C40.6379 43.4083 40.0521 43.5744 39.551 43.8972C39.0498 44.2201 38.656 44.6852 38.4197 45.2332C38.1835 45.7812 38.1154 46.3872 38.2243 46.9741C38.3332 47.561 38.6141 48.1021 39.0311 48.5284C39.4482 48.9547 39.9825 49.247 40.566 49.3679C41.1495 49.4888 41.7557 49.4329 42.3073 49.2073C42.859 48.9817 43.3311 48.5967 43.6634 48.1012C43.9958 47.6058 44.1733 47.0224 44.1735 46.4255C44.1789 45.6353 43.8734 44.8748 43.3232 44.3085C42.773 43.7423 42.0223 43.416 41.2336 43.4002V43.4202ZM91.0208 6.06465C91.6165 6.07658 92.2023 5.91052 92.7034 5.58764C93.2046 5.26476 93.5984 4.79968 93.8347 4.25169C94.0709 3.70371 94.139 3.09765 94.0301 2.51078C93.9212 1.92391 93.6403 1.38281 93.2233 0.956485C92.8062 0.530156 92.2719 0.237905 91.6884 0.116991C91.1049 -0.0039241 90.4987 0.0519773 89.9471 0.277566C89.3954 0.503155 88.9233 0.888208 88.591 1.38364C88.2586 1.87908 88.0811 2.46245 88.0809 3.05937C88.086 3.84264 88.3961 4.59298 88.9452 5.15057C89.4943 5.70817 90.2391 6.02896 91.0208 6.04461V6.06465ZM3.89577 32.5712C3.30005 32.5593 2.71428 32.7253 2.21313 33.0482C1.71198 33.3711 1.31815 33.8362 1.08188 34.3841C0.8456 34.9321 0.777569 35.5382 0.886454 36.1251C0.995338 36.7119 1.27622 37.253 1.69326 37.6793C2.11031 38.1057 2.64463 38.3979 3.22812 38.5188C3.8116 38.6398 4.41782 38.5839 4.96947 38.3583C5.52112 38.1327 5.99321 37.7476 6.32557 37.2522C6.65792 36.7568 6.83546 36.1734 6.83558 35.5765C6.83573 34.7897 6.52793 34.0343 5.97826 33.4724C5.4286 32.9105 4.68093 32.5869 3.89577 32.5712ZM3.89577 21.7422C3.30005 21.7302 2.71428 21.8963 2.21313 22.2192C1.71198 22.5421 1.31815 23.0071 1.08188 23.5551C0.8456 24.1031 0.777569 24.7092 0.886454 25.296C0.995338 25.8829 1.27622 26.424 1.69326 26.8503C2.11031 27.2767 2.64463 27.5689 3.22812 27.6898C3.8116 27.8107 4.41782 27.7548 4.96947 27.5292C5.52112 27.3037 5.99321 26.9186 6.32557 26.4232C6.65792 25.9277 6.83546 25.3444 6.83558 24.7474C6.83573 23.9607 6.52793 23.2053 5.97826 22.6434C5.4286 22.0815 4.68093 21.7579 3.89577 21.7422ZM3.89577 43.4002C3.30005 43.3883 2.71428 43.5543 2.21313 43.8772C1.71198 44.2001 1.31815 44.6652 1.08188 45.2132C0.8456 45.7611 0.777569 46.3672 0.886454 46.9541C0.995338 47.5409 1.27622 48.082 1.69326 48.5084C2.11031 48.9347 2.64463 49.2269 3.22812 49.3479C3.8116 49.4688 4.41782 49.4129 4.96947 49.1873C5.52112 48.9617 5.99321 48.5766 6.32557 48.0812C6.65792 47.5858 6.83546 47.0024 6.83558 46.4055C6.83573 45.6187 6.52793 44.8633 5.97826 44.3014C5.4286 43.7395 4.68093 43.4159 3.89577 43.4002ZM3.89577 54.2192C3.30005 54.2073 2.71428 54.3733 2.21313 54.6962C1.71198 55.0191 1.31815 55.4842 1.08188 56.0322C0.8456 56.5801 0.777569 57.1862 0.886454 57.7731C0.995338 58.3599 1.27622 58.901 1.69326 59.3274C2.11031 59.7537 2.64463 60.0459 3.22812 60.1669C3.8116 60.2878 4.41782 60.2319 4.96947 60.0063C5.52112 59.7807 5.99321 59.3956 6.32557 58.9002C6.65792 58.4048 6.83546 57.8214 6.83558 57.2245C6.83836 56.436 6.53172 55.678 5.98177 55.114C5.43183 54.5499 4.68267 54.225 3.89577 54.2092V54.2192ZM41.2336 10.9132C40.6379 10.9012 40.0521 11.0673 39.551 11.3902C39.0498 11.713 38.656 12.1781 38.4197 12.7261C38.1835 13.2741 38.1154 13.8801 38.2243 14.467C38.3332 15.0539 38.6141 15.595 39.0311 16.0213C39.4482 16.4476 39.9825 16.7399 40.566 16.8608C41.1495 16.9817 41.7557 16.9258 42.3073 16.7002C42.859 16.4746 43.3311 16.0896 43.6634 15.5942C43.9958 15.0987 44.1733 14.5154 44.1735 13.9184C44.1736 13.1317 43.8658 12.3763 43.3162 11.8144C42.7665 11.2524 42.0188 10.9289 41.2336 10.9132ZM16.345 32.5712C15.7493 32.5593 15.1635 32.7253 14.6624 33.0482C14.1613 33.3711 13.7675 33.8362 13.5312 34.3841C13.2949 34.9321 13.2268 35.5382 13.3357 36.1251C13.4446 36.7119 13.7255 37.253 14.1425 37.6793C14.5596 38.1057 15.0939 38.3979 15.6774 38.5188C16.2609 38.6398 16.8671 38.5839 17.4187 38.3583C17.9704 38.1327 18.4425 37.7476 18.7748 37.2522C19.1072 36.7568 19.2848 36.1734 19.2849 35.5765C19.285 34.7897 18.9772 34.0343 18.4276 33.4724C17.8779 32.9105 17.1302 32.5869 16.345 32.5712ZM16.345 10.9132C15.7493 10.9012 15.1635 11.0673 14.6624 11.3902C14.1613 11.713 13.7675 12.1781 13.5312 12.7261C13.2949 13.2741 13.2268 13.8801 13.3357 14.467C13.4446 15.0539 13.7255 15.595 14.1425 16.0213C14.5596 16.4476 15.0939 16.7399 15.6774 16.8608C16.2609 16.9817 16.8671 16.9258 17.4187 16.7002C17.9704 16.4746 18.4425 16.0896 18.7748 15.5942C19.1072 15.0987 19.2848 14.5154 19.2849 13.9184C19.285 13.1317 18.9772 12.3763 18.4276 11.8144C17.8779 11.2524 17.1302 10.9289 16.345 10.9132ZM16.345 21.7422C15.7493 21.7302 15.1635 21.8963 14.6624 22.2192C14.1613 22.5421 13.7675 23.0071 13.5312 23.5551C13.2949 24.1031 13.2268 24.7092 13.3357 25.296C13.4446 25.8829 13.7255 26.424 14.1425 26.8503C14.5596 27.2767 15.0939 27.5689 15.6774 27.6898C16.2609 27.8107 16.8671 27.7548 17.4187 27.5292C17.9704 27.3037 18.4425 26.9186 18.7748 26.4232C19.1072 25.9277 19.2848 25.3444 19.2849 24.7474C19.285 23.9607 18.9772 23.2053 18.4276 22.6434C17.8779 22.0815 17.1302 21.7579 16.345 21.7422ZM3.89577 0.114193C3.30005 0.102255 2.71428 0.268314 2.21313 0.591197C1.71198 0.91408 1.31815 1.37916 1.08188 1.92715C0.8456 2.47513 0.777569 3.08119 0.886454 3.66806C0.995338 4.25493 1.27622 4.79602 1.69326 5.22235C2.11031 5.64868 2.64463 5.94093 3.22812 6.06185C3.8116 6.18276 4.41782 6.12686 4.96947 5.90127C5.52112 5.67568 5.99321 5.29062 6.32557 4.79519C6.65792 4.29976 6.83546 3.71639 6.83558 3.11947C6.83573 2.33273 6.52793 1.57729 5.97826 1.01539C5.4286 0.453486 4.68093 0.129928 3.89577 0.114193ZM3.89577 10.9332C3.30005 10.9213 2.71428 11.0873 2.21313 11.4102C1.71198 11.7331 1.31815 12.1982 1.08188 12.7461C0.8456 13.2941 0.777569 13.9002 0.886454 14.4871C0.995338 15.0739 1.27622 15.615 1.69326 16.0413C2.11031 16.4677 2.64463 16.7599 3.22812 16.8808C3.8116 17.0018 4.41782 16.9459 4.96947 16.7203C5.52112 16.4947 5.99321 16.1096 6.32557 15.6142C6.65792 15.1188 6.83546 14.5354 6.83558 13.9385C6.84099 13.1483 6.53554 12.3877 5.98531 11.8215C5.43509 11.2553 4.68441 10.9289 3.89577 10.9132V10.9332ZM16.345 43.4202C15.7493 43.4083 15.1635 43.5744 14.6624 43.8972C14.1613 44.2201 13.7675 44.6852 13.5312 45.2332C13.2949 45.7812 13.2268 46.3872 13.3357 46.9741C13.4446 47.561 13.7255 48.1021 14.1425 48.5284C14.5596 48.9547 15.0939 49.247 15.6774 49.3679C16.2609 49.4888 16.8671 49.4329 17.4187 49.2073C17.9704 48.9817 18.4425 48.5967 18.7748 48.1012C19.1072 47.6058 19.2848 47.0224 19.2849 46.4255C19.2903 45.6353 18.9848 44.8748 18.4346 44.3085C17.8844 43.7423 17.1337 43.416 16.345 43.4002V43.4202ZM16.345 54.2392C15.7493 54.2273 15.1635 54.3934 14.6624 54.7162C14.1613 55.0391 13.7675 55.5042 13.5312 56.0522C13.2949 56.6002 13.2268 57.2062 13.3357 57.7931C13.4446 58.38 13.7255 58.9211 14.1425 59.3474C14.5596 59.7737 15.0939 60.066 15.6774 60.1869C16.2609 60.3078 16.8671 60.2519 17.4187 60.0263C17.9704 59.8007 18.4425 59.4157 18.7748 58.9202C19.1072 58.4248 19.2848 57.8414 19.2849 57.2445C19.2929 56.4526 18.9887 55.6895 18.4382 55.1211C17.8876 54.5527 17.1354 54.225 16.345 54.2092V54.2392ZM78.5715 32.5712C77.9758 32.5593 77.39 32.7253 76.8889 33.0482C76.3877 33.3711 75.9939 33.8362 75.7576 34.3841C75.5213 34.9321 75.4533 35.5382 75.5622 36.1251C75.6711 36.7119 75.9519 37.253 76.369 37.6793C76.786 38.1057 77.3204 38.3979 77.9038 38.5188C78.4873 38.6398 79.0935 38.5839 79.6452 38.3583C80.1969 38.1327 80.6689 37.7476 81.0013 37.2522C81.3336 36.7568 81.5112 36.1734 81.5113 35.5765C81.5115 34.7897 81.2037 34.0343 80.654 33.4724C80.1044 32.9105 79.3567 32.5869 78.5715 32.5712ZM78.5715 21.7422C77.9758 21.7302 77.39 21.8963 76.8889 22.2192C76.3877 22.5421 75.9939 23.0071 75.7576 23.5551C75.5213 24.1031 75.4533 24.7092 75.5622 25.296C75.6711 25.8829 75.9519 26.424 76.369 26.8503C76.786 27.2767 77.3204 27.5689 77.9038 27.6898C78.4873 27.8107 79.0935 27.7548 79.6452 27.5292C80.1969 27.3037 80.6689 26.9186 81.0013 26.4232C81.3336 25.9277 81.5112 25.3444 81.5113 24.7474C81.5115 23.9607 81.2037 23.2053 80.654 22.6434C80.1044 22.0815 79.3567 21.7579 78.5715 21.7422ZM78.5715 0.0941615C77.9758 0.082223 77.39 0.248274 76.8889 0.571157C76.3877 0.89404 75.9939 1.35912 75.7576 1.90711C75.5213 2.45509 75.4533 3.06115 75.5622 3.64803C75.6711 4.2349 75.9519 4.77598 76.369 5.20231C76.786 5.62864 77.3204 5.92089 77.9038 6.04181C78.4873 6.16272 79.0935 6.10682 79.6452 5.88123C80.1969 5.65564 80.6689 5.27059 81.0013 4.77516C81.3336 4.27972 81.5112 3.69636 81.5113 3.09944C81.5063 2.31617 81.1962 1.56582 80.647 1.00823C80.0979 0.45063 79.3532 0.129843 78.5715 0.114193V0.0941615ZM78.5715 10.9132C77.9758 10.9012 77.39 11.0673 76.8889 11.3902C76.3877 11.713 75.9939 12.1781 75.7576 12.7261C75.5213 13.2741 75.4533 13.8801 75.5622 14.467C75.6711 15.0539 75.9519 15.595 76.369 16.0213C76.786 16.4476 77.3204 16.7399 77.9038 16.8608C78.4873 16.9817 79.0935 16.9258 79.6452 16.7002C80.1969 16.4746 80.6689 16.0896 81.0013 15.5942C81.3336 15.0987 81.5112 14.5154 81.5113 13.9184C81.5115 13.1317 81.2037 12.3763 80.654 11.8144C80.1044 11.2524 79.3567 10.9289 78.5715 10.9132ZM78.5715 54.2192C77.9758 54.2073 77.39 54.3733 76.8889 54.6962C76.3877 55.0191 75.9939 55.4842 75.7576 56.0322C75.5213 56.5801 75.4533 57.1862 75.5622 57.7731C75.6711 58.3599 75.9519 58.901 76.369 59.3274C76.786 59.7537 77.3204 60.0459 77.9038 60.1669C78.4873 60.2878 79.0935 60.2319 79.6452 60.0063C80.1969 59.7807 80.6689 59.3956 81.0013 58.9002C81.3336 58.4048 81.5112 57.8214 81.5113 57.2245C81.5141 56.436 81.2075 55.678 80.6575 55.114C80.1076 54.5499 79.3584 54.225 78.5715 54.2092V54.2192ZM78.5715 43.4002C77.9758 43.3883 77.39 43.5543 76.8889 43.8772C76.3877 44.2001 75.9939 44.6652 75.7576 45.2132C75.5213 45.7611 75.4533 46.3672 75.5622 46.9541C75.6711 47.5409 75.9519 48.082 76.369 48.5084C76.786 48.9347 77.3204 49.2269 77.9038 49.3479C78.4873 49.4688 79.0935 49.4129 79.6452 49.1873C80.1969 48.9617 80.6689 48.5766 81.0013 48.0812C81.3336 47.5858 81.5112 47.0024 81.5113 46.4055C81.5115 45.6187 81.2037 44.8633 80.654 44.3014C80.1044 43.7395 79.3567 43.4159 78.5715 43.4002ZM66.1322 0.114193C65.5361 0.100255 64.9494 0.264592 64.4469 0.586229C63.9445 0.907866 63.5491 1.37221 63.3113 1.91998C63.0735 2.46775 63.004 3.07409 63.1117 3.6616C63.2195 4.24911 63.4995 4.79113 63.9161 5.21847C64.3327 5.64581 64.867 5.93908 65.4508 6.06084C66.0345 6.1826 66.6412 6.12732 67.1934 5.90206C67.7457 5.6768 68.2184 5.2918 68.5512 4.79618C68.884 4.30055 69.0619 3.71681 69.062 3.11947C69.0622 2.33442 68.7558 1.58046 68.2083 1.01884C67.6608 0.457209 66.9156 0.132511 66.1322 0.114193ZM91.0208 54.2092C90.425 54.1973 89.8393 54.3633 89.3381 54.6862C88.837 55.0091 88.4432 55.4742 88.2069 56.0221C87.9706 56.5701 87.9026 57.1762 88.0115 57.7631C88.1204 58.3499 88.4012 58.891 88.8183 59.3173C89.2353 59.7437 89.7697 60.0359 90.3531 60.1568C90.9366 60.2778 91.5428 60.2219 92.0945 59.9963C92.6461 59.7707 93.1182 59.3856 93.4506 58.8902C93.783 58.3948 93.9605 57.8114 93.9606 57.2145C93.9608 56.4277 93.653 55.6723 93.1033 55.1104C92.5536 54.5485 91.8059 54.2249 91.0208 54.2092ZM91.0208 21.7322C90.425 21.7202 89.8393 21.8863 89.3381 22.2092C88.837 22.532 88.4432 22.9971 88.2069 23.5451C87.9706 24.0931 87.9026 24.6992 88.0115 25.286C88.1204 25.8729 88.4012 26.414 88.8183 26.8403C89.2353 27.2666 89.7697 27.5589 90.3531 27.6798C90.9366 27.8007 91.5428 27.7448 92.0945 27.5192C92.6461 27.2936 93.1182 26.9086 93.4506 26.4132C93.783 25.9177 93.9605 25.3344 93.9606 24.7374C93.9581 23.9524 93.6492 23.1995 93.0998 22.6398C92.5504 22.08 91.8042 21.7579 91.0208 21.7422V21.7322ZM91.0208 10.9031C90.425 10.8912 89.8393 11.0573 89.3381 11.3801C88.837 11.703 88.4432 12.1681 88.2069 12.7161C87.9706 13.2641 87.9026 13.8701 88.0115 14.457C88.1204 15.0439 88.4012 15.585 88.8183 16.0113C89.2353 16.4376 89.7697 16.7299 90.3531 16.8508C90.9366 16.9717 91.5428 16.9158 92.0945 16.6902C92.6461 16.4646 93.1182 16.0796 93.4506 15.5841C93.783 15.0887 93.9605 14.5053 93.9606 13.9084C93.9581 13.1234 93.6492 12.3705 93.0998 11.8108C92.5504 11.251 91.8042 10.9289 91.0208 10.9132V10.9031ZM91.0208 32.5612C90.425 32.5492 89.8393 32.7153 89.3381 33.0382C88.837 33.3611 88.4432 33.8261 88.2069 34.3741C87.9706 34.9221 87.9026 35.5282 88.0115 36.115C88.1204 36.7019 88.4012 37.243 88.8183 37.6693C89.2353 38.0957 89.7697 38.3879 90.3531 38.5088C90.9366 38.6297 91.5428 38.5738 92.0945 38.3483C92.6461 38.1227 93.1182 37.7376 93.4506 37.2422C93.783 36.7467 93.9605 36.1634 93.9606 35.5665C93.9581 34.7814 93.6492 34.0286 93.0998 33.4688C92.5504 32.9091 91.8042 32.5869 91.0208 32.5712V32.5612ZM91.0208 43.3902C90.425 43.3783 89.8393 43.5443 89.3381 43.8672C88.837 44.1901 88.4432 44.6552 88.2069 45.2031C87.9706 45.7511 87.9026 46.3572 88.0115 46.944C88.1204 47.5309 88.4012 48.072 88.8183 48.4983C89.2353 48.9247 89.7697 49.2169 90.3531 49.3378C90.9366 49.4588 91.5428 49.4029 92.0945 49.1773C92.6461 48.9517 93.1182 48.5666 93.4506 48.0712C93.783 47.5758 93.9605 46.9924 93.9606 46.3955C93.9581 45.6105 93.6492 44.8576 93.0998 44.2978C92.5504 43.7381 91.8042 43.4159 91.0208 43.4002V43.3902ZM66.1322 10.9132C65.5361 10.8992 64.9494 11.0636 64.4469 11.3852C63.9445 11.7068 63.5491 12.1712 63.3113 12.7189C63.0735 13.2667 63.004 13.8731 63.1117 14.4606C63.2195 15.0481 63.4995 15.5901 63.9161 16.0174C64.3327 16.4448 64.867 16.738 65.4508 16.8598C66.0345 16.9816 66.6412 16.9263 67.1934 16.701C67.7457 16.4758 68.2184 16.0908 68.5512 15.5951C68.884 15.0995 69.0619 14.5158 69.062 13.9184C69.0622 13.1334 68.7558 12.3794 68.2083 11.8178C67.6608 11.2562 66.9156 10.9315 66.1322 10.9132ZM53.6829 21.7422C53.0872 21.7302 52.5014 21.8963 52.0003 22.2192C51.4991 22.5421 51.1053 23.0071 50.869 23.5551C50.6328 24.1031 50.5647 24.7092 50.6736 25.296C50.7825 25.8829 51.0633 26.424 51.4804 26.8503C51.8974 27.2767 52.4318 27.5689 53.0152 27.6898C53.5987 27.8107 54.205 27.7548 54.7566 27.5292C55.3083 27.3037 55.7804 26.9186 56.1127 26.4232C56.4451 25.9277 56.6226 25.3444 56.6227 24.7474C56.6229 23.9607 56.3151 23.2053 55.7654 22.6434C55.2158 22.0815 54.4681 21.7579 53.6829 21.7422ZM53.6829 10.9132C53.0872 10.9012 52.5014 11.0673 52.0003 11.3902C51.4991 11.713 51.1053 12.1781 50.869 12.7261C50.6328 13.2741 50.5647 13.8801 50.6736 14.467C50.7825 15.0539 51.0633 15.595 51.4804 16.0213C51.8974 16.4476 52.4318 16.7399 53.0152 16.8608C53.5987 16.9817 54.205 16.9258 54.7566 16.7002C55.3083 16.4746 55.7804 16.0896 56.1127 15.5942C56.4451 15.0987 56.6226 14.5154 56.6227 13.9184C56.6229 13.1317 56.3151 12.3763 55.7654 11.8144C55.2158 11.2524 54.4681 10.9289 53.6829 10.9132ZM53.6829 32.5712C53.0872 32.5593 52.5014 32.7253 52.0003 33.0482C51.4991 33.3711 51.1053 33.8362 50.869 34.3841C50.6328 34.9321 50.5647 35.5382 50.6736 36.1251C50.7825 36.7119 51.0633 37.253 51.4804 37.6793C51.8974 38.1057 52.4318 38.3979 53.0152 38.5188C53.5987 38.6398 54.205 38.5839 54.7566 38.3583C55.3083 38.1327 55.7804 37.7476 56.1127 37.2522C56.4451 36.7568 56.6226 36.1734 56.6227 35.5765C56.6229 34.7897 56.3151 34.0343 55.7654 33.4724C55.2158 32.9105 54.4681 32.5869 53.6829 32.5712ZM53.6829 43.4002C53.0872 43.3883 52.5014 43.5543 52.0003 43.8772C51.4991 44.2001 51.1053 44.6652 50.869 45.2132C50.6328 45.7611 50.5647 46.3672 50.6736 46.9541C50.7825 47.5409 51.0633 48.082 51.4804 48.5084C51.8974 48.9347 52.4318 49.2269 53.0152 49.3479C53.5987 49.4688 54.205 49.4129 54.7566 49.1873C55.3083 48.9617 55.7804 48.5766 56.1127 48.0812C56.4451 47.5858 56.6226 47.0024 56.6227 46.4055C56.6229 45.6187 56.3151 44.8633 55.7654 44.3014C55.2158 43.7395 54.4681 43.4159 53.6829 43.4002ZM53.6829 54.2192C53.0872 54.2073 52.5014 54.3733 52.0003 54.6962C51.4991 55.0191 51.1053 55.4842 50.869 56.0322C50.6328 56.5801 50.5647 57.1862 50.6736 57.7731C50.7825 58.3599 51.0633 58.901 51.4804 59.3274C51.8974 59.7537 52.4318 60.0459 53.0152 60.1669C53.5987 60.2878 54.205 60.2319 54.7566 60.0063C55.3083 59.7807 55.7804 59.3956 56.1127 58.9002C56.4451 58.4048 56.6226 57.8214 56.6227 57.2245C56.6255 56.436 56.3189 55.678 55.7689 55.114C55.219 54.5499 54.4698 54.225 53.6829 54.2092V54.2192ZM66.1322 21.7422C65.5361 21.7282 64.9494 21.8926 64.4469 22.2142C63.9445 22.5359 63.5491 23.0002 63.3113 23.548C63.0735 24.0957 63.004 24.7021 63.1117 25.2896C63.2195 25.8771 63.4995 26.4191 63.9161 26.8465C64.3327 27.2738 64.867 27.5671 65.4508 27.6888C66.0345 27.8106 66.6412 27.7553 67.1934 27.53C67.7457 27.3048 68.2184 26.9198 68.5512 26.4242C68.884 25.9285 69.0619 25.3448 69.062 24.7474C69.0622 23.9624 68.7558 23.2084 68.2083 22.6468C67.6608 22.0852 66.9156 21.7605 66.1322 21.7422ZM66.1322 32.5712C65.5361 32.5573 64.9494 32.7216 64.4469 33.0432C63.9445 33.3649 63.5491 33.8292 63.3113 34.377C63.0735 34.9247 63.004 35.5311 63.1117 36.1186C63.2195 36.7061 63.4995 37.2481 63.9161 37.6755C64.3327 38.1028 64.867 38.3961 65.4508 38.5178C66.0345 38.6396 66.6412 38.5843 67.1934 38.3591C67.7457 38.1338 68.2184 37.7488 68.5512 37.2532C68.884 36.7575 69.0619 36.1738 69.062 35.5765C69.0622 34.7914 68.7558 34.0375 68.2083 33.4758C67.6608 32.9142 66.9156 32.5895 66.1322 32.5712ZM53.6829 0.114193C53.0872 0.102255 52.5014 0.268314 52.0003 0.591197C51.4991 0.91408 51.1053 1.37916 50.869 1.92715C50.6328 2.47513 50.5647 3.08119 50.6736 3.66806C50.7825 4.25493 51.0633 4.79602 51.4804 5.22235C51.8974 5.64868 52.4318 5.94093 53.0152 6.06185C53.5987 6.18276 54.205 6.12686 54.7566 5.90127C55.3083 5.67568 55.7804 5.29062 56.1127 4.79519C56.4451 4.29976 56.6226 3.71639 56.6227 3.11947C56.6229 2.33273 56.3151 1.57729 55.7654 1.01539C55.2158 0.453486 54.4681 0.129928 53.6829 0.114193ZM41.2336 0.114193C40.6379 0.102255 40.0521 0.268314 39.551 0.591197C39.0498 0.91408 38.656 1.37916 38.4197 1.92715C38.1835 2.47513 38.1154 3.08119 38.2243 3.66806C38.3332 4.25493 38.6141 4.79602 39.0311 5.22235C39.4482 5.64868 39.9825 5.94093 40.566 6.06185C41.1495 6.18276 41.7557 6.12686 42.3073 5.90127C42.859 5.67568 43.3311 5.29062 43.6634 4.79519C43.9958 4.29976 44.1733 3.71639 44.1735 3.11947C44.1736 2.33273 43.8658 1.57729 43.3162 1.01539C42.7665 0.453486 42.0188 0.129928 41.2336 0.114193ZM66.1322 54.2092C65.5361 54.1953 64.9494 54.3596 64.4469 54.6812C63.9445 55.0029 63.5491 55.4672 63.3113 56.015C63.0735 56.5627 63.004 57.1691 63.1117 57.7566C63.2195 58.3441 63.4995 58.8861 63.9161 59.3135C64.3327 59.7408 64.867 60.0341 65.4508 60.1558C66.0345 60.2776 66.6412 60.2223 67.1934 59.9971C67.7457 59.7718 68.2184 59.3868 68.5512 58.8912C68.884 58.3955 69.0619 57.8118 69.062 57.2145C69.0622 56.4294 68.7558 55.6755 68.2083 55.1138C67.6608 54.5522 66.9156 54.2275 66.1322 54.2092ZM66.1322 43.3902C65.5361 43.3763 64.9494 43.5406 64.4469 43.8622C63.9445 44.1839 63.5491 44.6482 63.3113 45.196C63.0735 45.7437 63.004 46.3501 63.1117 46.9376C63.2195 47.5251 63.4995 48.0671 63.9161 48.4945C64.3327 48.9218 64.867 49.2151 65.4508 49.3368C66.0345 49.4586 66.6412 49.4033 67.1934 49.1781C67.7457 48.9528 68.2184 48.5678 68.5512 48.0722C68.884 47.5765 69.0619 46.9928 69.062 46.3955C69.0596 45.6122 68.7521 44.8607 68.2048 44.3013C67.6576 43.7418 66.9139 43.4185 66.1322 43.4002V43.3902Z" fill="#0032A8"/>
</svg>
